<svg width="72" height="72" viewBox="0 0 72 72" fill="none" xmlns="http://www.w3.org/2000/svg">
<rect width="72" height="72" fill="white"/>
<path fill-rule="evenodd" clip-rule="evenodd" d="M68.8729 41.1808C68.3138 40.187 67.0922 39.8557 66.1398 40.4147L42.992 53.8314L17.1526 8.17755C17.1319 8.13615 17.1319 8.09474 17.1112 8.05333C16.8213 7.53572 16.3658 7.22514 15.8482 7.08021C15.3306 6.93528 14.7508 6.9767 14.2539 7.28727C14.1504 7.34938 14.0883 7.4322 14.0055 7.51502L3.86018 13.5194C2.90776 14.0991 2.57651 15.3621 3.13553 16.3559C3.69456 17.3497 4.91612 17.681 5.86853 17.122L14.5231 12.0079L21.1279 23.6646C17.1112 27.5778 16.1174 33.6857 19.1402 38.6548L28.4159 53.8935L26.6353 54.9494C25.6829 55.5291 25.3516 56.7921 25.9107 57.786C26.4697 58.7798 27.6913 59.111 28.6437 58.552L37.7951 53.1481L40.3625 57.6824C40.3832 57.7238 40.3832 57.7652 40.4039 57.8067C40.6938 58.3243 41.1493 58.6348 41.6669 58.7798C42.1845 58.9247 42.7642 58.8833 43.2612 58.5727C43.3647 58.5106 43.4061 58.4278 43.4889 58.3657L68.1482 44.0794C69.1006 43.4376 69.4319 42.1746 68.8729 41.1808ZM32.1428 51.6574L22.9499 36.5429C21.19 33.6443 21.4798 30.1866 23.364 27.6192L35.7661 49.5248L32.1428 51.6574Z" fill="#9FBBFF"/>
<path d="M27.7125 64.9912C32.2865 64.9912 35.9944 61.2833 35.9944 56.7094C35.9944 52.1354 32.2865 48.4275 27.7125 48.4275C23.1386 48.4275 19.4307 52.1354 19.4307 56.7094C19.4307 61.2833 23.1386 64.9912 27.7125 64.9912Z" fill="#CAD9FF"/>
<path d="M27.7132 60.8505C30.0002 60.8505 31.8541 58.9965 31.8541 56.7095C31.8541 54.4226 30.0002 52.5686 27.7132 52.5686C25.4262 52.5686 23.5723 54.4226 23.5723 56.7095C23.5723 58.9965 25.4262 60.8505 27.7132 60.8505Z" fill="white"/>
<path d="M64.3591 37.6402L54.0067 19.71C53.427 18.7161 52.164 18.3848 51.1702 18.9439L33.24 29.2962C32.2461 29.8759 31.9149 31.1389 32.4739 32.1328L42.8262 50.063C43.406 51.0568 44.6689 51.3881 45.6628 50.8291L63.593 40.4767C64.5868 39.897 64.9181 38.634 64.3591 37.6402Z" fill="#9FBBFF"/>
<path d="M44.7536 20.2693L38.5422 9.5029C37.9624 8.50908 36.6994 8.17781 35.7056 8.73684L24.9392 14.9482C23.9454 15.528 23.6141 16.7909 24.1731 17.7848L30.3845 28.5512C30.9642 29.545 32.2272 29.8763 33.2211 29.3173L43.9875 23.1059C44.9813 22.5262 45.3333 21.2631 44.7536 20.2693Z" fill="#CAD9FF"/>
</svg>
