<svg width="72" height="72" viewBox="0 0 72 72" fill="none" xmlns="http://www.w3.org/2000/svg">
<rect width="72" height="72" fill="white"/>
<path d="M61.365 13.2493H10.6325C8.63948 13.2493 7.00879 14.88 7.00879 16.873V42.2393C7.00879 44.2323 8.63948 45.863 10.6325 45.863H61.365C63.3581 45.863 64.9888 44.2323 64.9888 42.2393V16.873C64.9888 14.88 63.3581 13.2493 61.365 13.2493Z" fill="#9FBBFF"/>
<path fill-rule="evenodd" clip-rule="evenodd" d="M35.9987 24.1206C35.9987 24.1206 35.9806 24.1206 35.9987 24.1206C36.0168 24.1206 35.9987 24.1206 35.9987 24.1206ZM24.4027 28.5959C24.8557 27.7987 25.1275 26.9109 25.1275 25.9325C25.1275 22.9248 22.6995 20.4969 19.6918 20.4969H14.2562C13.2597 20.4969 12.4443 21.3122 12.4443 22.3087V36.8037C12.4443 37.8003 13.2597 38.6156 14.2562 38.6156H19.6918V38.2895C20.2535 38.4888 20.8696 38.6156 21.5037 38.6156C24.5114 38.6156 26.9393 36.1877 26.9393 33.18C26.9393 31.2413 25.9247 29.5562 24.4027 28.5959ZM16.0681 24.1206H19.6918C20.6884 24.1206 21.5037 24.9359 21.5037 25.9325C21.5037 26.929 20.6884 27.7444 19.6918 27.7444H16.0681V24.1206ZM21.5037 34.9918H16.0681V31.3681H21.5037C22.5002 31.3681 23.3156 32.1834 23.3156 33.18C23.3156 34.1765 22.5002 34.9918 21.5037 34.9918ZM41.4343 20.4969C40.4378 20.4969 39.6224 21.3122 39.6224 22.3087V31.3681C39.6224 33.3793 37.9918 34.9918 35.9987 34.9918C34.0056 34.9918 32.375 33.3793 32.375 31.3681V22.3087C32.375 21.3122 31.5596 20.4969 30.5631 20.4969C29.5665 20.4969 28.7512 21.3122 28.7512 22.3087V31.3681C28.7512 35.3723 31.9945 38.6156 35.9987 38.6156C40.0029 38.6156 43.2462 35.3723 43.2462 31.3681V22.3087C43.2462 21.3122 42.4309 20.4969 41.4343 20.4969ZM58.7015 20.7324C57.8499 20.2251 56.7447 20.515 56.2374 21.3484L52.3237 27.8712L48.41 21.3484C47.9027 20.4969 46.7975 20.2251 45.9459 20.7324C45.0943 21.2397 44.8044 22.3269 45.3118 23.1784L50.5118 31.8211V36.8037C50.5118 37.8003 51.3272 38.6156 52.3237 38.6156C53.3202 38.6156 54.1356 37.8003 54.1356 36.8037V31.8211L59.3357 23.1784C59.8249 22.3269 59.5531 21.2216 58.7015 20.7324Z" fill="white"/>
<path fill-rule="evenodd" clip-rule="evenodd" d="M64.4625 59.0716L55.2038 49.8129L61.9259 47.5662C62.6325 47.3307 63.1217 46.6965 63.1579 45.9536C63.1942 45.2107 62.7956 44.5222 62.1071 44.2142L34.929 31.5311C34.2405 31.205 33.4251 31.3499 32.8815 31.8935C32.338 32.4371 32.193 33.2524 32.5191 33.9409L45.2023 61.119C45.5103 61.7532 46.1444 62.1699 46.8511 62.1699C46.8873 62.1699 46.9235 62.1699 46.9598 62.1699C47.7027 62.1337 48.3368 61.6445 48.5724 60.9378L50.8191 54.2158L60.0778 63.4745C60.4402 63.8368 60.8931 63.9999 61.3642 63.9999C61.8353 63.9999 62.2882 63.8187 62.6506 63.4745L64.4625 61.6626C65.1691 60.9378 65.1691 59.7783 64.4625 59.0716Z" fill="#CAD9FF"/>
</svg>
