<svg width="72" height="72" viewBox="0 0 72 72" fill="none" xmlns="http://www.w3.org/2000/svg">
<rect width="72" height="72" fill="white"/>
<path fill-rule="evenodd" clip-rule="evenodd" d="M68.8729 41.1808C68.3138 40.187 67.0922 39.8557 66.1398 40.4147L42.992 53.8314L17.1526 8.17755C17.1319 8.13615 17.1319 8.09474 17.1112 8.05333C16.8213 7.53572 16.3658 7.22514 15.8482 7.08021C15.3306 6.93528 14.7508 6.9767 14.2539 7.28727C14.1504 7.34938 14.0883 7.4322 14.0055 7.51502L3.86018 13.5194C2.90776 14.0991 2.57651 15.3621 3.13553 16.3559C3.69456 17.3497 4.91612 17.681 5.86853 17.122L14.5231 12.0079L21.1279 23.6646C17.1112 27.5778 16.1174 33.6857 19.1402 38.6548L28.4159 53.8935L26.6353 54.9494C25.6829 55.5291 25.3516 56.7921 25.9107 57.786C26.4697 58.7798 27.6913 59.111 28.6437 58.552L37.7951 53.1481L40.3625 57.6824C40.3832 57.7238 40.3832 57.7652 40.4039 57.8067C40.6938 58.3243 41.1493 58.6348 41.6669 58.7798C42.1845 58.9247 42.7642 58.8833 43.2612 58.5727C43.3647 58.5106 43.4061 58.4278 43.4889 58.3657L68.1482 44.0794C69.1006 43.4376 69.4319 42.1746 68.8729 41.1808ZM32.1428 51.6574L22.9499 36.5429C21.19 33.6443 21.4798 30.1866 23.364 27.6192L35.7661 49.5248L32.1428 51.6574Z" fill="#9FBBFF"/>
<path d="M27.7125 64.9912C32.2865 64.9912 35.9944 61.2833 35.9944 56.7094C35.9944 52.1354 32.2865 48.4275 27.7125 48.4275C23.1386 48.4275 19.4307 52.1354 19.4307 56.7094C19.4307 61.2833 23.1386 64.9912 27.7125 64.9912Z" fill="#CAD9FF"/>
<path d="M27.7132 60.8503C30.0002 60.8503 31.8541 58.9964 31.8541 56.7094C31.8541 54.4224 30.0002 52.5685 27.7132 52.5685C25.4262 52.5685 23.5723 54.4224 23.5723 56.7094C23.5723 58.9964 25.4262 60.8503 27.7132 60.8503Z" fill="white"/>
<path d="M64.3601 37.6403L54.0077 19.7101C53.428 18.7163 52.165 18.385 51.1712 18.944L33.2409 29.2963C32.2471 29.876 31.9159 31.1391 32.4749 32.1329L42.8272 50.0631C43.4069 51.0569 44.6699 51.3882 45.6637 50.8292L63.594 40.4769C64.5878 39.8971 64.9191 38.6341 64.3601 37.6403Z" fill="#9FBBFF"/>
<path d="M44.7526 20.2692L38.5412 9.50278C37.9614 8.50896 36.6985 8.17769 35.7046 8.73672L24.9382 14.9481C23.9444 15.5278 23.6131 16.7908 24.1721 17.7846L30.3835 28.5511C30.9633 29.5449 32.2263 29.8762 33.2201 29.3172L43.9865 23.1058C44.9803 22.526 45.3323 21.263 44.7526 20.2692Z" fill="#CAD9FF"/>
</svg>
