<svg width="72" height="72" viewBox="0 0 72 72" fill="none" xmlns="http://www.w3.org/2000/svg">
<rect width="72" height="72" fill="white"/>
<path fill-rule="evenodd" clip-rule="evenodd" d="M59.625 14.0625H29.25C29.25 12.2062 27.7313 10.6875 25.875 10.6875H12.375C10.5187 10.6875 9 12.2062 9 14.0625V17.4375V22.5V41.0625C9 42.9356 10.5187 44.4375 12.375 44.4375H59.625C61.4813 44.4375 63 42.9188 63 41.0625V17.4375C63 15.5644 61.4981 14.0625 59.625 14.0625Z" fill="#9FBBFF"/>
<path d="M57.9375 17.4375H14.0625C13.1344 17.4375 12.375 18.1969 12.375 19.125V37.6875H59.625V19.125C59.625 18.1969 58.8825 17.4375 57.9375 17.4375Z" fill="white"/>
<path d="M37.6875 30.9375H24.1875C23.2594 30.9375 22.5 31.6969 22.5 32.625C22.5 33.5531 23.2594 34.3125 24.1875 34.3125H37.6875C38.6156 34.3125 39.375 33.5531 39.375 32.625C39.375 31.6969 38.6156 30.9375 37.6875 30.9375ZM47.8125 24.1875H24.1875C23.2594 24.1875 22.5 24.9469 22.5 25.875C22.5 26.8031 23.2594 27.5625 24.1875 27.5625H47.8125C48.7406 27.5625 49.5 26.8031 49.5 25.875C49.5 24.9469 48.7406 24.1875 47.8125 24.1875Z" fill="#D8E3FF"/>
<path d="M59.625 37.6875H12.375C10.5187 37.6875 9 39.1894 9 41.0625V57.9375C9 59.7938 10.5187 61.3125 12.375 61.3125H59.625C61.4813 61.3125 63 59.7938 63 57.9375V41.0625C63 39.1894 61.4981 37.6875 59.625 37.6875Z" fill="#CAD9FF"/>
</svg>
