<svg width="43" height="43" viewBox="0 0 43 43" fill="none" xmlns="http://www.w3.org/2000/svg">
<path d="M26.965 8.95841C28.715 9.29984 30.3233 10.1557 31.584 11.4165C32.8448 12.6772 33.7006 14.2855 34.0421 16.0355M26.965 1.79175C30.6008 2.19565 33.9912 3.82381 36.5795 6.40889C39.1678 8.99396 40.8002 12.3823 41.2087 16.0176M39.4171 30.3151V35.6901C39.4191 36.1891 39.3169 36.683 39.117 37.1402C38.9171 37.5974 38.6239 38.0078 38.2562 38.3451C37.8885 38.6824 37.4544 38.9392 36.9817 39.0991C36.509 39.259 36.0082 39.3183 35.5112 39.2734C29.998 38.6744 24.7021 36.7904 20.0491 33.773C15.7202 31.0222 12.05 27.352 9.29914 23.023C6.27118 18.3489 4.38682 13.0273 3.79872 7.48925C3.75395 6.99379 3.81283 6.49444 3.97162 6.02299C4.13041 5.55154 4.38562 5.11832 4.72101 4.7509C5.0564 4.38349 5.46462 4.08994 5.91968 3.88893C6.37474 3.68793 6.86667 3.58388 7.36414 3.58341H12.7391C13.6086 3.57486 14.4516 3.88276 15.1109 4.44974C15.7702 5.01672 16.2008 5.80409 16.3225 6.66508C16.5493 8.3852 16.9701 10.0741 17.5766 11.6997C17.8177 12.3409 17.8699 13.0379 17.727 13.7079C17.5841 14.3779 17.2521 14.9929 16.7704 15.4801L14.495 17.7555C17.0455 22.241 20.7595 25.955 25.245 28.5055L27.5204 26.2301C28.0075 25.7484 28.6225 25.4164 29.2926 25.2735C29.9626 25.1306 30.6595 25.1828 31.3008 25.4238C32.9263 26.0304 34.6153 26.4511 36.3354 26.678C37.2057 26.8008 38.0006 27.2392 38.5688 27.9098C39.137 28.5804 39.4389 29.4364 39.4171 30.3151Z" stroke="black" stroke-width="2" stroke-linecap="round" stroke-linejoin="round"/>
</svg>
