<svg width="43" height="43" viewBox="0 0 43 43" fill="none" xmlns="http://www.w3.org/2000/svg">
<path d="M32.25 39.4167C35.2185 39.4167 37.625 37.0103 37.625 34.0417C37.625 31.0732 35.2185 28.6667 32.25 28.6667C29.2815 28.6667 26.875 31.0732 26.875 34.0417C26.875 37.0103 29.2815 39.4167 32.25 39.4167Z" stroke="black" stroke-width="2" stroke-linecap="round" stroke-linejoin="round"/>
<path d="M10.75 26.875C13.7185 26.875 16.125 24.4685 16.125 21.5C16.125 18.5315 13.7185 16.125 10.75 16.125C7.78147 16.125 5.375 18.5315 5.375 21.5C5.375 24.4685 7.78147 26.875 10.75 26.875Z" stroke="black" stroke-width="2" stroke-linecap="round" stroke-linejoin="round"/>
<path d="M15.3906 24.2053L27.6277 31.3362" stroke="black" stroke-width="2" stroke-linecap="round" stroke-linejoin="round"/>
<path d="M32.25 14.3333C35.2185 14.3333 37.625 11.9268 37.625 8.95825C37.625 5.98972 35.2185 3.58325 32.25 3.58325C29.2815 3.58325 26.875 5.98972 26.875 8.95825C26.875 11.9268 29.2815 14.3333 32.25 14.3333Z" stroke="black" stroke-width="2" stroke-linecap="round" stroke-linejoin="round"/>
<path d="M27.6098 11.6638L15.3906 18.7947" stroke="black" stroke-width="2" stroke-linecap="round" stroke-linejoin="round"/>
</svg>
