<svg width="58" height="51" viewBox="0 0 58 51" fill="none" xmlns="http://www.w3.org/2000/svg">
<path d="M54.365 0.249268H3.63254C1.63948 0.249268 0.00878906 1.87995 0.00878906 3.87302V29.2393C0.00878906 31.2323 1.63948 32.863 3.63254 32.863H54.365C56.3581 32.863 57.9888 31.2323 57.9888 29.2393V3.87302C57.9888 1.87995 56.3581 0.249268 54.365 0.249268Z" fill="#9FBBFF"/>
<path fill-rule="evenodd" clip-rule="evenodd" d="M28.9987 11.1206C28.9987 11.1206 28.9806 11.1206 28.9987 11.1206C29.0168 11.1206 28.9987 11.1206 28.9987 11.1206ZM17.4027 15.5959C17.8557 14.7987 18.1275 13.9109 18.1275 12.9325C18.1275 9.92477 15.6995 7.49686 12.6918 7.49686H7.25621C6.25968 7.49686 5.44434 8.3122 5.44434 9.30873V23.8037C5.44434 24.8003 6.25968 25.6156 7.25621 25.6156H12.6918V25.2895C13.2535 25.4888 13.8696 25.6156 14.5037 25.6156C17.5114 25.6156 19.9393 23.1877 19.9393 20.18C19.9393 18.2413 18.9247 16.5562 17.4027 15.5959ZM9.06808 11.1206H12.6918C13.6884 11.1206 14.5037 11.9359 14.5037 12.9325C14.5037 13.929 13.6884 14.7444 12.6918 14.7444H9.06808V11.1206ZM14.5037 21.9918H9.06808V18.3681H14.5037C15.5002 18.3681 16.3156 19.1834 16.3156 20.18C16.3156 21.1765 15.5002 21.9918 14.5037 21.9918ZM34.4343 7.49686C33.4378 7.49686 32.6224 8.3122 32.6224 9.30873V18.3681C32.6224 20.3793 30.9918 21.9918 28.9987 21.9918C27.0056 21.9918 25.375 20.3793 25.375 18.3681V9.30873C25.375 8.3122 24.5596 7.49686 23.5631 7.49686C22.5665 7.49686 21.7512 8.3122 21.7512 9.30873V18.3681C21.7512 22.3723 24.9945 25.6156 28.9987 25.6156C33.0029 25.6156 36.2462 22.3723 36.2462 18.3681V9.30873C36.2462 8.3122 35.4309 7.49686 34.4343 7.49686ZM51.7015 7.73241C50.8499 7.22508 49.7447 7.51498 49.2374 8.34844L45.3237 14.8712L41.41 8.34844C40.9027 7.49686 39.7975 7.22508 38.9459 7.73241C38.0943 8.23973 37.8044 9.32687 38.3118 10.1784L43.5118 18.8211V23.8037C43.5118 24.8003 44.3272 25.6156 45.3237 25.6156C46.3202 25.6156 47.1356 24.8003 47.1356 23.8037V18.8211L52.3357 10.1784C52.8249 9.32687 52.5531 8.22161 51.7015 7.73241Z" fill="white"/>
<path fill-rule="evenodd" clip-rule="evenodd" d="M57.4625 46.0717L48.2038 36.813L54.9259 34.5663C55.6325 34.3308 56.1217 33.6966 56.1579 32.9537C56.1942 32.2109 55.7956 31.5224 55.1071 31.2144L27.929 18.5312C27.2405 18.2051 26.4251 18.3501 25.8815 18.8936C25.338 19.4372 25.193 20.2525 25.5191 20.9411L38.2023 48.1192C38.5103 48.7533 39.1444 49.17 39.8511 49.17C39.8873 49.17 39.9235 49.17 39.9598 49.17C40.7027 49.1338 41.3368 48.6446 41.5724 47.938L43.8191 41.2159L53.0778 50.4746C53.4402 50.837 53.8931 51 54.3642 51C54.8353 51 55.2882 50.8188 55.6506 50.4746L57.4625 48.6627C58.1691 47.938 58.1691 46.7784 57.4625 46.0717Z" fill="#CAD9FF"/>
</svg>
