<svg width="64" height="64" viewBox="0 0 64 64" fill="none" xmlns="http://www.w3.org/2000/svg">
<path fill-rule="evenodd" clip-rule="evenodd" d="M0 48V60C0 62.2 1.8 64 4 64H60C62.2 64 64 62.2 64 60V48H0ZM56 16C56 13.8 54.2 12 52 12H46V8H48C49.1 8 50 7.1 50 6V2C50 0.9 49.1 0 48 0H36C34.9 0 34 0.9 34 2V6C34 7.1 34.9 8 36 8H38V12H12C9.8 12 8 13.8 8 16V28H56V16Z" fill="#CAD9FF"/>
<path d="M58 52H6C4.9 52 4 52.9 4 54V58C4 59.1 4.9 60 6 60H58C59.1 60 60 59.1 60 58V54C60 52.9 59.1 52 58 52Z" fill="#9FBBFF"/>
<path d="M56 28H8L0 48H64L56 28Z" fill="#9FBBFF"/>
<path d="M52 32H32V44H56L52 32Z" fill="#CAD9FF"/>
<path d="M50 16H34C32.9 16 32 16.9 32 18V22C32 23.1 32.9 24 34 24H50C51.1 24 52 23.1 52 22V18C52 16.9 51.1 16 50 16Z" fill="#BBCFFF"/>
<path d="M26 18H14C12.9 18 12 18.9 12 20C12 21.1 12.9 22 14 22H26C27.1 22 28 21.1 28 20C28 18.9 27.1 18 26 18Z" fill="#BBCFFF"/>
<path d="M14 20V40C14 41.1 14.9 42 16 42H24C25.1 42 26 41.1 26 40V20H14Z" fill="white"/>
</svg>
