<svg width="72" height="72" viewBox="0 0 72 72" fill="none" xmlns="http://www.w3.org/2000/svg">
<rect width="72" height="72" fill="white"/>
<path fill-rule="evenodd" clip-rule="evenodd" d="M68.8733 41.1808C68.3143 40.187 67.0927 39.8557 66.1403 40.4147L42.9925 53.8314L17.1531 8.17755C17.1324 8.13615 17.1324 8.09474 17.1117 8.05333C16.8218 7.53572 16.3663 7.22514 15.8487 7.08021C15.3311 6.93528 14.7513 6.9767 14.2544 7.28727C14.1509 7.34938 14.0888 7.4322 14.006 7.51502L3.86067 13.5194C2.90825 14.0991 2.577 15.3621 3.13602 16.3559C3.69505 17.3497 4.91661 17.681 5.86902 17.122L14.5236 12.0079L21.1284 23.6646C17.1117 27.5778 16.1178 33.6857 19.1407 38.6548L28.4164 53.8935L26.6358 54.9494C25.6834 55.5291 25.3521 56.7921 25.9112 57.786C26.4702 58.7798 27.6917 59.111 28.6442 58.552L37.7956 53.1481L40.363 57.6824C40.3837 57.7238 40.3837 57.7652 40.4044 57.8067C40.6943 58.3243 41.1498 58.6348 41.6674 58.7798C42.185 58.9247 42.7647 58.8833 43.2617 58.5727C43.3652 58.5106 43.4066 58.4278 43.4894 58.3657L68.1487 44.0794C69.1011 43.4376 69.4324 42.1746 68.8733 41.1808ZM32.1433 51.6574L22.9504 36.5429C21.1905 33.6443 21.4803 30.1866 23.3645 27.6192L35.7666 49.5248L32.1433 51.6574Z" fill="#9FBBFF"/>
<path d="M27.7135 64.9912C32.2875 64.9912 35.9954 61.2833 35.9954 56.7094C35.9954 52.1354 32.2875 48.4275 27.7135 48.4275C23.1396 48.4275 19.4316 52.1354 19.4316 56.7094C19.4316 61.2833 23.1396 64.9912 27.7135 64.9912Z" fill="#CAD9FF"/>
<path d="M27.7132 60.8503C30.0002 60.8503 31.8541 58.9964 31.8541 56.7094C31.8541 54.4224 30.0002 52.5685 27.7132 52.5685C25.4262 52.5685 23.5723 54.4224 23.5723 56.7094C23.5723 58.9964 25.4262 60.8503 27.7132 60.8503Z" fill="white"/>
<path d="M64.3601 37.6403L54.0077 19.7101C53.428 18.7163 52.165 18.385 51.1712 18.944L33.2409 29.2963C32.2471 29.876 31.9159 31.1391 32.4749 32.1329L42.8272 50.0631C43.4069 51.0569 44.6699 51.3882 45.6637 50.8292L63.594 40.4769C64.5878 39.8971 64.9191 38.6341 64.3601 37.6403Z" fill="#9FBBFF"/>
<path d="M44.7531 20.2692L38.5417 9.50278C37.9619 8.50896 36.699 8.17769 35.7051 8.73672L24.9387 14.9481C23.9449 15.5278 23.6136 16.7908 24.1726 17.7846L30.384 28.5511C30.9638 29.5449 32.2268 29.8762 33.2206 29.3172L43.987 23.1058C44.9808 22.526 45.3328 21.263 44.7531 20.2692Z" fill="#CAD9FF"/>
</svg>
