<svg width="474" height="313" viewBox="0 0 474 313" fill="none" xmlns="http://www.w3.org/2000/svg">
<path d="M180.94 146.997L196.299 138.135L180.94 129.273L165.591 138.135L150.232 146.997L165.591 155.87L180.94 164.732L196.299 155.87L180.94 146.997Z" fill="#D4ECFF"/>
<path d="M180.939 124.92V59.9104L196.298 51.0377V116.058L180.939 124.92Z" fill="#173D7A"/>
<path d="M180.94 59.9104L165.592 51.0377V116.058L180.94 124.92V59.9104Z" fill="#3265CB"/>
<path d="M196.299 51.0378L180.94 42.1757L165.592 51.0378L180.94 59.9105L196.299 51.0378Z" fill="#D4ECFF"/>
<path d="M196.298 127.875L180.939 119.013V124.921L196.298 133.783V127.875Z" fill="#95D359"/>
<path d="M165.592 133.783V86.5074L180.94 77.6348V124.921L165.592 133.783Z" fill="#C13D1A"/>
<path d="M165.591 86.5074L150.232 77.6348V124.921L165.591 133.783V86.5074Z" fill="#DB5126"/>
<path d="M180.94 77.6348L165.591 68.7727L150.232 77.6348L165.591 86.5075L180.94 77.6348Z" fill="#EF602E"/>
<path d="M165.592 133.783V86.5074L180.94 77.6348V124.921L165.592 133.783Z" fill="#2A61CE"/>
<path d="M165.591 86.5074L150.232 77.6348V124.921L165.591 133.783V86.5074Z" fill="#538DFF"/>
<path d="M180.94 77.6348L165.591 68.7727L150.232 77.6348L165.591 86.5075L180.94 77.6348Z" fill="#D4ECFF"/>
<path d="M180.939 142.645V116.058L196.298 107.186V133.782L180.939 142.645Z" fill="#173D7A"/>
<path d="M180.939 116.058L165.591 107.186V133.782L180.939 142.645V116.058Z" fill="#2A61CE"/>
<path d="M196.298 107.186L180.939 98.3236L165.591 107.186L180.939 116.058L196.298 107.186Z" fill="#D4ECFF"/>
<path d="M382.397 177.184L381.94 175.402L376.767 176.727L377.224 178.509L382.397 177.184Z" fill="#5793CE"/>
<path d="M379.772 179.775L379.315 177.993L374.142 179.319L374.599 181.101L379.772 179.775Z" fill="#5793CE"/>
<path d="M377.13 182.342L376.673 180.56L371.5 181.886L371.956 183.668L377.13 182.342Z" fill="#5793CE"/>
<path d="M374.477 184.908L374.021 183.126L368.847 184.451L369.304 186.233L374.477 184.908Z" fill="#5793CE"/>
<path d="M245.435 308.166L129.47 241.211C126.19 239.318 126.6 236.007 130.385 233.82L209.345 188.248C213.129 186.062 218.859 185.82 222.139 187.723L338.104 254.677C341.383 256.57 340.973 259.881 337.189 262.068L258.229 307.64C254.455 309.816 248.715 310.058 245.435 308.166Z" fill="#D4ECFF"/>
<path d="M342.414 122.965L224.536 54.9692C223.022 54.0966 221.624 53.96 220.499 54.4225V54.412L220.31 54.5066C220.299 54.5171 220.278 54.5171 220.268 54.5276L216.431 56.3358L220.594 58.4068C220.594 58.4804 220.583 58.554 220.583 58.6381L220.615 155.459C220.615 160.306 223.611 165.961 227.311 168.096L342.046 234.283L342.698 239.686L346.892 237.689C348.269 236.88 349.142 235.05 349.142 232.433L349.11 135.612C349.11 130.755 346.104 125.099 342.414 122.965Z" fill="#173D7A"/>
<path d="M342.414 122.965L224.536 54.9692C223.022 54.0966 221.624 53.96 220.499 54.4225V54.412L220.31 54.5066C220.299 54.5171 220.278 54.5171 220.268 54.5276L216.431 56.3358L220.594 58.4068C220.594 58.4804 220.583 58.554 220.583 58.6381L220.604 122.45L274.25 164.837L347.092 128.179C345.883 125.929 344.233 124.016 342.414 122.965Z" fill="#396CAA"/>
<path d="M344.38 124.489L332.826 129.346L341.552 136.064L348.837 132.962C348.196 129.787 346.524 126.581 344.38 124.489Z" fill="#274F89"/>
<path d="M338.577 239.161L220.699 171.165C216.998 169.031 214.002 163.375 214.002 158.529L213.971 61.7077C213.971 56.8614 216.967 54.6642 220.667 56.7983L338.545 124.794C342.246 126.928 345.242 132.584 345.242 137.43L345.273 234.251C345.263 239.087 342.267 241.295 338.577 239.161Z" fill="#D4ECFF"/>
<path d="M334.656 231.96L224.568 168.484C221.183 166.529 218.439 161.357 218.439 156.921L218.407 68.3202C218.407 63.8838 221.151 61.8759 224.526 63.8208L334.614 127.296C337.999 129.251 340.743 134.424 340.743 138.86L340.774 227.46C340.774 231.897 338.03 233.905 334.656 231.96Z" fill="white"/>
<path d="M334.656 231.96L224.568 168.484C221.183 166.529 218.439 161.357 218.439 156.921L218.407 68.3202C218.407 63.8838 221.151 61.8759 224.526 63.8208L334.614 127.296C337.999 129.251 340.743 134.424 340.743 138.86L340.774 227.46C340.774 231.897 338.03 233.905 334.656 231.96Z" fill="white"/>
<path d="M340.333 242.167L324.48 240.075L222.15 180.994C218.87 179.102 213.14 179.333 209.356 181.52L136.85 223.371L127.263 222.109V227.544H127.273C127.21 228.806 127.925 230.015 129.47 230.908L245.435 297.863C248.715 299.756 254.444 299.524 258.229 297.338L337.189 251.765C339.323 250.535 340.385 248.948 340.322 247.466V242.167H340.333Z" fill="#173D7A"/>
<path d="M263.454 204.837L256.179 200.642H176.252L136.85 223.381L127.263 222.12V227.555H127.273C127.21 228.816 127.925 230.025 129.47 230.919L245.435 297.874C247.17 298.872 249.588 299.272 252.037 299.114L263.454 204.837Z" fill="#396CAA"/>
<path d="M131.52 222.666L127.263 222.109V227.544H127.273C127.21 228.806 127.925 230.015 129.47 230.908L131.51 232.086V222.666H131.52Z" fill="#5793CE"/>
<path d="M246.612 298.399C249.724 299.577 254.171 299.324 257.482 297.727V285.595H246.612V298.399Z" fill="#274F89"/>
<path d="M245.435 292.428L129.47 225.474C126.19 223.581 126.6 220.27 130.385 218.083L209.345 172.511C213.129 170.324 218.859 170.083 222.139 171.985L338.104 238.94C341.383 240.833 340.973 244.144 337.189 246.331L258.229 291.903C254.455 294.079 248.715 294.321 245.435 292.428Z" fill="#D4ECFF"/>
<path d="M337.199 244.333L258.239 289.905C254.454 292.092 248.725 292.334 245.445 290.441L129.47 223.486C128.398 222.866 127.725 222.088 127.43 221.258C126.915 222.814 127.567 224.38 129.47 225.473L245.435 292.428C248.715 294.321 254.444 294.089 258.228 291.903L337.189 246.33C339.733 244.859 340.753 242.882 340.143 241.169C339.785 242.294 338.797 243.408 337.199 244.333Z" fill="white"/>
<path d="M178.796 203.313L173.55 200.285C173.129 200.043 173.182 199.612 173.665 199.339L179.857 195.765C180.341 195.481 181.077 195.449 181.497 195.702L186.743 198.729C187.164 198.971 187.111 199.402 186.627 199.675L180.436 203.25C179.952 203.523 179.216 203.555 178.796 203.313Z" fill="#173D7A"/>
<path d="M186.901 207.991L181.655 204.963C181.235 204.722 181.287 204.291 181.771 204.017L187.963 200.443C188.446 200.159 189.182 200.128 189.603 200.38L194.849 203.407C195.269 203.649 195.217 204.08 194.733 204.354L188.541 207.928C188.057 208.201 187.322 208.233 186.901 207.991Z" fill="#173D7A"/>
<path d="M195.006 212.669L189.76 209.641C189.339 209.4 189.392 208.969 189.875 208.695L196.067 205.121C196.551 204.837 197.287 204.806 197.707 205.058L202.953 208.086C203.374 208.327 203.321 208.758 202.837 209.032L196.645 212.606C196.162 212.879 195.426 212.911 195.006 212.669Z" fill="#173D7A"/>
<path d="M206.213 208.8L200.967 205.773C200.546 205.531 200.599 205.1 201.082 204.827L206.286 201.82C206.77 201.536 207.506 201.505 207.926 201.757L213.172 204.785C213.592 205.026 213.54 205.457 213.056 205.731L207.853 208.737C207.369 209.011 206.633 209.042 206.213 208.8Z" fill="#173D7A"/>
<path d="M214.307 213.479L209.061 210.451C208.641 210.209 208.694 209.778 209.177 209.505L214.381 206.498C214.864 206.214 215.6 206.183 216.021 206.435L221.267 209.463C221.687 209.705 221.635 210.136 221.151 210.409L215.947 213.415C215.464 213.689 214.728 213.72 214.307 213.479Z" fill="#173D7A"/>
<path d="M222.413 218.157L217.167 215.129C216.746 214.887 216.799 214.456 217.283 214.183L222.486 211.176C222.97 210.892 223.706 210.861 224.126 211.113L229.372 214.141C229.793 214.383 229.74 214.814 229.256 215.087L224.053 218.094C223.569 218.367 222.833 218.398 222.413 218.157Z" fill="#173D7A"/>
<path d="M230.518 222.835L225.272 219.807C224.852 219.565 224.904 219.134 225.388 218.861L230.592 215.854C231.075 215.571 231.811 215.539 232.232 215.791L237.478 218.819C237.898 219.061 237.846 219.492 237.362 219.765L232.158 222.772C231.675 223.045 230.939 223.077 230.518 222.835Z" fill="#173D7A"/>
<path d="M238.623 227.513L233.377 224.485C232.956 224.244 233.009 223.813 233.493 223.539L238.696 220.533C239.18 220.249 239.916 220.217 240.336 220.47L245.582 223.497C246.003 223.739 245.95 224.17 245.466 224.443L240.263 227.45C239.779 227.723 239.043 227.755 238.623 227.513Z" fill="#173D7A"/>
<path d="M246.717 232.191L241.472 229.163C241.051 228.922 241.104 228.491 241.587 228.217L246.791 225.211C247.275 224.927 248.01 224.895 248.431 225.148L253.677 228.175C254.097 228.417 254.045 228.848 253.561 229.121L248.357 232.128C247.884 232.401 247.148 232.433 246.717 232.191Z" fill="#173D7A"/>
<path d="M254.823 236.869L249.577 233.841C249.157 233.6 249.209 233.169 249.693 232.895L254.896 229.889C255.38 229.605 256.116 229.573 256.536 229.826L261.782 232.853C262.203 233.095 262.15 233.526 261.667 233.799L256.463 236.806C255.979 237.079 255.243 237.111 254.823 236.869Z" fill="#173D7A"/>
<path d="M262.927 241.547L257.682 238.52C257.261 238.278 257.314 237.847 257.797 237.573L263.001 234.567C263.485 234.283 264.22 234.251 264.641 234.504L269.887 237.531C270.307 237.773 270.255 238.204 269.771 238.477L264.567 241.484C264.084 241.757 263.348 241.789 262.927 241.547Z" fill="#173D7A"/>
<path d="M271.034 246.225L265.788 243.198C265.368 242.956 265.42 242.525 265.904 242.252L271.107 239.245C271.591 238.961 272.327 238.93 272.747 239.182L277.993 242.21C278.414 242.451 278.361 242.882 277.878 243.156L272.674 246.162C272.19 246.436 271.454 246.467 271.034 246.225Z" fill="#173D7A"/>
<path d="M279.138 250.903L273.893 247.876C273.472 247.634 273.525 247.203 274.008 246.93L279.212 243.923C279.696 243.639 280.431 243.608 280.852 243.86L286.098 246.888C286.518 247.129 286.466 247.56 285.982 247.834L280.778 250.84C280.295 251.114 279.559 251.145 279.138 250.903Z" fill="#173D7A"/>
<path d="M218.144 206.582L212.898 203.555C212.478 203.313 212.53 202.882 213.014 202.609L218.218 199.602C218.701 199.318 219.437 199.287 219.858 199.539L225.104 202.567C225.524 202.808 225.471 203.239 224.988 203.513L219.784 206.519C219.301 206.803 218.565 206.824 218.144 206.582Z" fill="#396CAA"/>
<path d="M209.924 201.841L204.678 198.813C204.257 198.572 204.31 198.141 204.793 197.867L209.997 194.861C210.481 194.577 211.217 194.545 211.637 194.798L216.883 197.825C217.303 198.067 217.251 198.498 216.767 198.771L211.563 201.778C211.08 202.051 210.344 202.083 209.924 201.841Z" fill="#396CAA"/>
<path d="M201.681 197.079L190.38 190.551C189.959 190.309 190.012 189.878 190.495 189.604L195.699 186.598C196.183 186.314 196.919 186.282 197.339 186.535L208.64 193.063C209.061 193.305 209.008 193.736 208.525 194.009L203.321 197.016C202.848 197.3 202.112 197.321 201.681 197.079Z" fill="#173D7A"/>
<path d="M207.442 191.297L198.275 185.999C197.855 185.757 197.907 185.326 198.391 185.052L203.595 182.046C204.078 181.762 204.814 181.73 205.235 181.983L214.402 187.281C214.822 187.523 214.77 187.954 214.286 188.227L209.082 191.234C208.599 191.507 207.863 191.539 207.442 191.297Z" fill="#173D7A"/>
<path d="M226.25 211.26L221.004 208.233C220.583 207.991 220.636 207.56 221.12 207.287L226.323 204.28C226.807 203.996 227.543 203.965 227.963 204.217L233.209 207.245C233.63 207.486 233.577 207.917 233.093 208.191L227.89 211.197C227.406 211.481 226.67 211.502 226.25 211.26Z" fill="#396CAA"/>
<path d="M234.355 215.938L229.109 212.911C228.689 212.669 228.741 212.238 229.225 211.965L234.429 208.958C234.912 208.674 235.648 208.643 236.069 208.895L241.314 211.923C241.735 212.164 241.682 212.595 241.199 212.869L235.995 215.875C235.512 216.159 234.776 216.191 234.355 215.938Z" fill="#173D7A"/>
<path d="M242.46 220.617L237.214 217.589C236.793 217.347 236.846 216.916 237.329 216.643L242.533 213.636C243.017 213.352 243.753 213.321 244.173 213.573L249.419 216.601C249.839 216.843 249.787 217.274 249.303 217.547L244.1 220.554C243.616 220.837 242.88 220.869 242.46 220.617Z" fill="#173D7A"/>
<path d="M250.555 225.295L245.31 222.267C244.889 222.025 244.942 221.594 245.425 221.321L250.629 218.314C251.112 218.031 251.848 217.999 252.269 218.251L257.515 221.279C257.935 221.521 257.883 221.952 257.399 222.225L252.195 225.232C251.712 225.516 250.976 225.547 250.555 225.295Z" fill="#173D7A"/>
<path d="M258.66 229.973L253.414 226.945C252.994 226.703 253.046 226.272 253.53 225.999L258.733 222.992C259.217 222.709 259.953 222.677 260.373 222.929L265.619 225.957C266.04 226.199 265.987 226.63 265.504 226.903L260.3 229.91C259.816 230.194 259.08 230.225 258.66 229.973Z" fill="#173D7A"/>
<path d="M266.765 234.651L261.519 231.623C261.099 231.382 261.152 230.95 261.635 230.677L266.839 227.671C267.322 227.387 268.058 227.355 268.479 227.607L273.725 230.635C274.145 230.877 274.093 231.308 273.609 231.581L268.405 234.588C267.922 234.872 267.186 234.903 266.765 234.651Z" fill="#173D7A"/>
<path d="M274.871 239.329L269.625 236.302C269.204 236.06 269.257 235.629 269.741 235.355L274.944 232.349C275.428 232.065 276.164 232.033 276.584 232.286L281.83 235.313C282.251 235.555 282.198 235.986 281.714 236.259L276.511 239.266C276.027 239.55 275.291 239.581 274.871 239.329Z" fill="#173D7A"/>
<path d="M282.975 244.007L277.729 240.979C277.309 240.738 277.362 240.307 277.845 240.033L283.049 237.027C283.532 236.743 284.268 236.711 284.689 236.964L289.935 239.991C290.355 240.233 290.303 240.664 289.819 240.937L284.615 243.944C284.132 244.228 283.396 244.259 282.975 244.007Z" fill="#173D7A"/>
<path d="M291.07 248.685L285.824 245.658C285.404 245.416 285.456 244.985 285.94 244.711L291.144 241.705C291.627 241.421 292.363 241.389 292.784 241.642L298.029 244.669C298.45 244.911 298.397 245.342 297.914 245.616L292.71 248.622C292.226 248.906 291.49 248.938 291.07 248.685Z" fill="#173D7A"/>
<path d="M305.483 257.011L294.035 250.399C293.615 250.157 293.667 249.726 294.151 249.453L299.355 246.446C299.838 246.162 300.574 246.131 300.994 246.383L312.443 252.996C312.863 253.237 312.811 253.668 312.327 253.942L307.123 256.948C306.64 257.222 305.904 257.253 305.483 257.011Z" fill="#173D7A"/>
<path d="M321.252 247.897L311.591 242.315C311.17 242.073 311.223 241.642 311.706 241.368L316.91 238.362C317.394 238.078 318.13 238.046 318.55 238.299L328.211 243.881C328.632 244.123 328.579 244.554 328.096 244.827L322.892 247.834C322.408 248.107 321.672 248.139 321.252 247.897Z" fill="#173D7A"/>
<path d="M240.442 210.346L235.196 207.318C234.776 207.076 234.828 206.645 235.312 206.372L240.516 203.366C240.999 203.082 241.735 203.05 242.156 203.302L247.401 206.33C247.822 206.572 247.769 207.003 247.286 207.276L242.082 210.283C241.598 210.567 240.863 210.588 240.442 210.346Z" fill="#173D7A"/>
<path d="M232.136 205.552L226.891 202.524C226.47 202.283 226.523 201.852 227.006 201.578L232.21 198.572C232.694 198.288 233.429 198.256 233.85 198.509L239.096 201.536C239.516 201.778 239.464 202.209 238.98 202.482L233.776 205.489C233.293 205.762 232.557 205.794 232.136 205.552Z" fill="#173D7A"/>
<path d="M223.832 200.758L218.586 197.731C218.165 197.489 218.218 197.058 218.702 196.785L223.905 193.778C224.389 193.494 225.125 193.463 225.545 193.715L230.791 196.743C231.212 196.984 231.159 197.415 230.675 197.689L225.472 200.695C224.988 200.969 224.252 201 223.832 200.758Z" fill="#396CAA"/>
<path d="M215.527 195.965L210.281 192.937C209.861 192.695 209.913 192.264 210.397 191.991L215.601 188.984C216.084 188.7 216.82 188.669 217.241 188.921L222.486 191.949C222.907 192.19 222.854 192.622 222.371 192.895L217.167 195.901C216.683 196.175 215.948 196.206 215.527 195.965Z" fill="#173D7A"/>
<path d="M248.547 215.024L243.301 211.996C242.88 211.754 242.933 211.323 243.416 211.05L248.62 208.043C249.104 207.76 249.84 207.728 250.26 207.98L255.506 211.008C255.926 211.25 255.874 211.681 255.39 211.954L250.187 214.961C249.703 215.245 248.967 215.266 248.547 215.024Z" fill="#173D7A"/>
<path d="M256.641 219.702L251.395 216.674C250.975 216.433 251.028 216.002 251.511 215.728L256.715 212.722C257.198 212.438 257.934 212.406 258.355 212.659L263.601 215.686C264.021 215.928 263.969 216.359 263.485 216.632L258.281 219.639C257.808 219.923 257.072 219.944 256.641 219.702Z" fill="#173D7A"/>
<path d="M264.747 224.38L259.501 221.353C259.08 221.111 259.133 220.68 259.617 220.406L264.82 217.4C265.304 217.116 266.04 217.084 266.46 217.337L271.706 220.364C272.127 220.606 272.074 221.037 271.59 221.31L266.387 224.317C265.903 224.601 265.167 224.622 264.747 224.38Z" fill="#173D7A"/>
<path d="M272.852 229.058L267.606 226.031C267.186 225.789 267.238 225.358 267.722 225.084L272.926 222.078C273.409 221.794 274.145 221.762 274.566 222.015L279.812 225.042C280.232 225.284 280.18 225.715 279.696 225.988L274.492 228.995C274.009 229.279 273.273 229.3 272.852 229.058Z" fill="#173D7A"/>
<path d="M280.958 233.737L275.712 230.709C275.291 230.467 275.344 230.036 275.828 229.763L281.031 226.756C281.515 226.472 282.251 226.441 282.671 226.693L287.917 229.721C288.338 229.962 288.285 230.393 287.801 230.667L282.598 233.673C282.114 233.957 281.378 233.978 280.958 233.737Z" fill="#173D7A"/>
<path d="M289.062 238.414L283.816 235.387C283.396 235.145 283.448 234.714 283.932 234.441L289.136 231.434C289.619 231.15 290.355 231.119 290.776 231.371L296.022 234.399C296.442 234.64 296.389 235.071 295.906 235.345L290.702 238.351C290.219 238.635 289.483 238.656 289.062 238.414Z" fill="#173D7A"/>
<path d="M297.157 243.093L291.911 240.065C291.491 239.823 291.543 239.392 292.027 239.119L297.23 236.112C297.714 235.828 298.45 235.797 298.87 236.049L304.116 239.077C304.537 239.319 304.484 239.75 304.001 240.023L298.797 243.03C298.313 243.313 297.577 243.334 297.157 243.093Z" fill="#173D7A"/>
<path d="M305.262 247.771L300.017 244.743C299.596 244.501 299.649 244.07 300.132 243.797L305.336 240.79C305.82 240.506 306.555 240.475 306.976 240.727L312.222 243.755C312.642 243.997 312.59 244.428 312.106 244.701L306.902 247.708C306.419 247.991 305.683 248.012 305.262 247.771Z" fill="#173D7A"/>
<path d="M313.368 252.449L308.122 249.421C307.702 249.179 307.754 248.748 308.238 248.475L313.441 245.469C313.925 245.185 314.661 245.153 315.081 245.405L320.327 248.433C320.748 248.675 320.695 249.106 320.212 249.379L315.008 252.386C314.524 252.67 313.788 252.691 313.368 252.449Z" fill="#173D7A"/>
<path d="M236.174 198.782L230.928 195.754C230.507 195.513 230.56 195.081 231.043 194.808L236.247 191.802C236.731 191.518 237.467 191.486 237.887 191.738L243.133 194.766C243.553 195.008 243.501 195.439 243.017 195.712L237.813 198.719C237.33 198.992 236.594 199.024 236.174 198.782Z" fill="#173D7A"/>
<path d="M228.11 194.125L222.864 191.097C222.444 190.855 222.496 190.424 222.98 190.151L228.184 187.144C228.667 186.861 229.403 186.829 229.824 187.081L235.069 190.109C235.49 190.351 235.437 190.782 234.954 191.055L229.75 194.062C229.266 194.335 228.531 194.367 228.11 194.125Z" fill="#173D7A"/>
<path d="M220.048 189.468L214.802 186.44C214.381 186.198 214.434 185.767 214.917 185.494L220.121 182.487C220.605 182.204 221.341 182.172 221.761 182.424L227.007 185.452C227.427 185.694 227.375 186.125 226.891 186.398L221.687 189.405C221.204 189.678 220.468 189.71 220.048 189.468Z" fill="#173D7A"/>
<path d="M211.984 184.811L206.738 181.783C206.318 181.541 206.37 181.11 206.854 180.837L212.058 177.83C212.541 177.546 213.277 177.515 213.698 177.767L218.943 180.795C219.364 181.037 219.311 181.468 218.828 181.741L213.624 184.748C213.14 185.021 212.405 185.052 211.984 184.811Z" fill="#173D7A"/>
<path d="M220.278 180.027L215.032 177C214.612 176.758 214.664 176.327 215.148 176.054L216.861 175.065C217.345 174.782 218.081 174.75 218.501 175.002L223.747 178.03C224.168 178.272 224.115 178.703 223.632 178.976L221.918 179.964C221.434 180.238 220.698 180.269 220.278 180.027Z" fill="#173D7A"/>
<path d="M230.801 186.104L225.556 183.076C225.135 182.834 225.188 182.403 225.671 182.13L227.385 181.142C227.868 180.858 228.604 180.826 229.025 181.079L234.271 184.106C234.691 184.348 234.639 184.779 234.155 185.052L232.441 186.041C231.958 186.314 231.222 186.345 230.801 186.104Z" fill="#173D7A"/>
<path d="M238.823 190.74L233.577 187.712C233.157 187.47 233.209 187.039 233.693 186.766L235.406 185.778C235.89 185.494 236.626 185.462 237.046 185.715L242.292 188.742C242.713 188.984 242.66 189.415 242.176 189.688L240.463 190.677C239.99 190.95 239.254 190.981 238.823 190.74Z" fill="#173D7A"/>
<path d="M246.854 195.376L241.608 192.348C241.188 192.106 241.24 191.675 241.724 191.402L243.438 190.414C243.921 190.13 244.657 190.098 245.078 190.351L250.323 193.378C250.744 193.62 250.691 194.051 250.208 194.325L248.494 195.313C248.011 195.586 247.275 195.618 246.854 195.376Z" fill="#173D7A"/>
<path d="M254.885 200.012L249.64 196.984C249.219 196.742 249.272 196.311 249.755 196.038L251.469 195.05C251.952 194.766 252.688 194.735 253.109 194.987L258.355 198.015C258.775 198.256 258.723 198.687 258.239 198.961L256.525 199.949C256.042 200.222 255.306 200.254 254.885 200.012Z" fill="#173D7A"/>
<path d="M299.712 225.883L294.466 222.856C294.045 222.614 294.098 222.183 294.581 221.91L296.295 220.922C296.779 220.638 297.514 220.606 297.935 220.858L303.181 223.886C303.601 224.128 303.549 224.559 303.065 224.832L301.352 225.82C300.868 226.104 300.132 226.125 299.712 225.883Z" fill="#173D7A"/>
<path d="M307.744 230.519L302.498 227.492C302.078 227.25 302.13 226.819 302.614 226.546L304.327 225.558C304.811 225.274 305.547 225.242 305.967 225.494L311.213 228.522C311.633 228.764 311.581 229.195 311.097 229.468L309.384 230.456C308.9 230.74 308.164 230.761 307.744 230.519Z" fill="#173D7A"/>
<path d="M315.764 235.155L310.519 232.128C310.098 231.886 310.151 231.455 310.634 231.182L312.348 230.194C312.831 229.91 313.567 229.878 313.988 230.13L319.233 233.158C319.654 233.4 319.601 233.831 319.118 234.104L317.404 235.092C316.921 235.366 316.185 235.397 315.764 235.155Z" fill="#173D7A"/>
<path d="M323.797 239.792L318.551 236.764C318.13 236.522 318.183 236.091 318.666 235.818L320.38 234.83C320.864 234.546 321.599 234.514 322.02 234.767L327.266 237.794C327.686 238.036 327.634 238.467 327.15 238.74L325.436 239.728C324.953 240.002 324.217 240.033 323.797 239.792Z" fill="#173D7A"/>
<path d="M244.279 203.46L239.033 200.432C238.613 200.191 238.665 199.76 239.149 199.486L244.353 196.48C244.836 196.196 245.572 196.164 245.993 196.417L251.238 199.444C251.659 199.686 251.606 200.117 251.123 200.39L245.919 203.397C245.435 203.67 244.699 203.702 244.279 203.46Z" fill="#173D7A"/>
<path d="M252.383 208.138L247.138 205.111C246.717 204.869 246.77 204.438 247.253 204.164L252.457 201.158C252.941 200.874 253.677 200.842 254.097 201.095L259.343 204.122C259.763 204.364 259.711 204.795 259.227 205.069L254.023 208.075C253.54 208.348 252.804 208.38 252.383 208.138Z" fill="#173D7A"/>
<path d="M260.479 212.816L255.233 209.778C254.813 209.536 254.865 209.105 255.349 208.832L260.553 205.825C261.036 205.542 261.772 205.51 262.193 205.762L267.439 208.79C267.859 209.032 267.806 209.463 267.323 209.736L262.119 212.743C261.636 213.027 260.9 213.058 260.479 212.816Z" fill="#173D7A"/>
<path d="M268.584 217.494L263.338 214.467C262.917 214.225 262.97 213.794 263.453 213.521L268.657 210.514C269.141 210.23 269.877 210.199 270.297 210.451L275.543 213.479C275.964 213.72 275.911 214.151 275.427 214.425L270.224 217.431C269.74 217.705 269.004 217.736 268.584 217.494Z" fill="#173D7A"/>
<path d="M276.689 222.173L271.443 219.145C271.023 218.903 271.075 218.472 271.559 218.199L276.763 215.192C277.246 214.908 277.982 214.877 278.403 215.129L283.648 218.157C284.069 218.399 284.016 218.83 283.533 219.103L278.329 222.109C277.846 222.383 277.11 222.414 276.689 222.173Z" fill="#173D7A"/>
<path d="M284.795 226.851L279.549 223.823C279.128 223.581 279.181 223.15 279.664 222.877L284.868 219.87C285.352 219.586 286.088 219.555 286.508 219.807L291.754 222.835C292.174 223.077 292.122 223.508 291.638 223.781L286.435 226.788C285.951 227.061 285.215 227.092 284.795 226.851Z" fill="#173D7A"/>
<path d="M292.889 231.529L287.644 228.501C287.223 228.259 287.276 227.828 287.759 227.555L292.963 224.548C293.446 224.265 294.182 224.233 294.603 224.485L299.849 227.513C300.269 227.755 300.217 228.186 299.733 228.459L294.529 231.466C294.056 231.739 293.32 231.771 292.889 231.529Z" fill="#173D7A"/>
<path d="M300.995 236.207L295.749 233.179C295.328 232.937 295.381 232.506 295.865 232.233L301.068 229.226C301.552 228.943 302.288 228.911 302.708 229.163L307.954 232.191C308.375 232.433 308.322 232.864 307.839 233.137L302.635 236.144C302.151 236.417 301.415 236.449 300.995 236.207Z" fill="#173D7A"/>
<path d="M309.099 240.885L303.853 237.857C303.433 237.616 303.486 237.185 303.969 236.911L309.173 233.905C309.656 233.621 310.392 233.589 310.813 233.841L316.059 236.869C316.479 237.111 316.427 237.542 315.943 237.815L310.739 240.822C310.256 241.095 309.52 241.127 309.099 240.885Z" fill="#173D7A"/>
<path d="M197.95 204.038L182.496 195.113C182.076 194.871 182.128 194.44 182.612 194.167L187.815 191.16C188.299 190.876 189.035 190.845 189.455 191.097L204.909 200.022C205.329 200.264 205.277 200.695 204.793 200.969L199.59 203.975C199.106 204.249 198.37 204.28 197.95 204.038Z" fill="#173D7A"/>
<path d="M297.494 261.511L282.04 252.585C281.619 252.344 281.672 251.913 282.156 251.639L287.359 248.633C287.843 248.349 288.579 248.317 288.999 248.57L304.453 257.495C304.873 257.737 304.821 258.168 304.337 258.441L299.134 261.448C298.65 261.721 297.914 261.752 297.494 261.511Z" fill="#173D7A"/>
<path d="M265.093 253.132L259.848 250.105C259.427 249.863 259.48 249.432 259.963 249.158L266.155 245.584C266.639 245.3 267.375 245.269 267.795 245.521L273.041 248.549C273.461 248.79 273.409 249.221 272.925 249.495L266.733 253.069C266.25 253.342 265.514 253.374 265.093 253.132Z" fill="#173D7A"/>
<path d="M206.245 219.155L197.855 214.309C197.435 214.067 197.487 213.636 197.971 213.363L204.163 209.789C204.647 209.505 205.382 209.473 205.803 209.726L214.192 214.572C214.613 214.814 214.56 215.245 214.076 215.518L207.884 219.092C207.411 219.366 206.676 219.397 206.245 219.155Z" fill="#173D7A"/>
<path d="M257.283 248.622L248.894 243.776C248.473 243.534 248.526 243.103 249.009 242.83L255.201 239.256C255.685 238.972 256.421 238.94 256.841 239.192L265.23 244.039C265.651 244.281 265.598 244.712 265.115 244.985L258.923 248.559C258.439 248.833 257.703 248.864 257.283 248.622Z" fill="#173D7A"/>
<path d="M217.945 225.904L209.556 221.058C209.135 220.816 209.188 220.385 209.671 220.112L215.863 216.538C216.347 216.254 217.083 216.222 217.503 216.475L225.892 221.321C226.313 221.563 226.26 221.994 225.777 222.267L219.585 225.841C219.101 226.125 218.365 226.146 217.945 225.904Z" fill="#173D7A"/>
<path d="M217.556 216.506L254.035 237.573C254.487 237.836 254.487 238.257 254.035 238.52L247.716 242.167C247.264 242.43 246.528 242.43 246.076 242.167L209.598 221.1L217.556 216.506Z" fill="#173D7A"/>
<path d="M287.738 261.616L293.583 264.99C293.93 265.19 293.888 265.537 293.488 265.768L290.955 267.23C290.555 267.461 289.956 267.482 289.609 267.282L283.764 263.908C283.417 263.708 283.459 263.361 283.859 263.13L286.392 261.668C286.792 261.437 287.391 261.416 287.738 261.616Z" fill="#173D7A"/>
<path d="M279.569 256.896L285.414 260.27C285.761 260.47 285.719 260.817 285.319 261.048L282.786 262.509C282.386 262.741 281.787 262.762 281.44 262.562L275.595 259.187C275.248 258.988 275.29 258.641 275.69 258.409L278.223 256.948C278.623 256.717 279.222 256.696 279.569 256.896Z" fill="#173D7A"/>
<path d="M271.465 252.218L277.31 255.592C277.656 255.792 277.614 256.139 277.215 256.37L274.681 257.831C274.282 258.063 273.683 258.084 273.336 257.884L267.491 254.509C267.144 254.31 267.186 253.963 267.585 253.731L270.119 252.27C270.518 252.039 271.118 252.018 271.465 252.218Z" fill="#173D7A"/>
<path d="M284.049 254.309L289.894 257.684C290.24 257.884 290.198 258.231 289.799 258.462L287.265 259.923C286.866 260.155 286.267 260.176 285.92 259.976L280.075 256.601C279.728 256.401 279.77 256.055 280.169 255.823L282.703 254.362C283.092 254.141 283.702 254.11 284.049 254.309Z" fill="#173D7A"/>
<path d="M292.742 139.123L287.727 136.221C287.265 135.948 286.876 135.222 286.865 134.602C286.855 133.982 287.223 133.688 287.685 133.961L292.7 136.862C293.163 137.136 293.551 137.861 293.562 138.481C293.573 139.102 293.205 139.385 292.742 139.123Z" fill="#D4ECFF"/>
<path d="M304.695 146.019L297.294 141.751C296.831 141.477 296.442 140.752 296.432 140.132C296.421 139.512 296.789 139.217 297.252 139.491L304.653 143.759C305.115 144.032 305.504 144.757 305.515 145.378C305.525 145.998 305.157 146.292 304.695 146.019Z" fill="#D4ECFF"/>
<path d="M290.25 165.877L285.235 162.976C284.773 162.702 284.384 161.977 284.373 161.357C284.363 160.736 284.731 160.442 285.193 160.715L290.208 163.617C290.67 163.89 291.059 164.616 291.07 165.236C291.091 165.856 290.723 166.15 290.25 165.877Z" fill="#D4ECFF"/>
<path d="M300.91 172.027L293.509 167.759C293.046 167.486 292.657 166.76 292.647 166.14C292.636 165.52 293.004 165.225 293.467 165.499L300.868 169.767C301.33 170.04 301.719 170.766 301.73 171.386C301.74 172.006 301.372 172.3 300.91 172.027Z" fill="#D4ECFF"/>
<path d="M278.98 135.874L275.848 134.066C275.385 133.793 274.996 133.067 274.986 132.447C274.975 131.827 275.343 131.532 275.806 131.806L278.938 133.614C279.401 133.887 279.79 134.613 279.8 135.233C279.811 135.853 279.443 136.137 278.98 135.874Z" fill="#D4ECFF"/>
<path d="M289.682 146.755L280.105 141.225C279.643 140.952 279.254 140.226 279.243 139.606C279.233 138.986 279.601 138.692 280.063 138.965L289.64 144.495C290.103 144.768 290.492 145.493 290.502 146.114C290.523 146.734 290.155 147.018 289.682 146.755Z" fill="#D4ECFF"/>
<path d="M283.395 152.516L280.263 150.708C279.8 150.434 279.411 149.709 279.401 149.089C279.39 148.468 279.758 148.174 280.221 148.447L283.353 150.256C283.816 150.529 284.205 151.254 284.215 151.874C284.236 152.495 283.858 152.789 283.395 152.516Z" fill="#D4ECFF"/>
<path d="M304.61 183.57L296.242 178.734C295.78 178.461 295.391 177.735 295.38 177.115C295.37 176.495 295.738 176.201 296.2 176.474L304.568 181.31C305.031 181.583 305.42 182.308 305.43 182.929C305.441 183.549 305.073 183.833 304.61 183.57Z" fill="#D4ECFF"/>
<path d="M282.429 161.357L280.421 160.19C279.958 159.917 279.569 159.191 279.559 158.571C279.548 157.951 279.916 157.656 280.379 157.93L282.387 159.097C282.849 159.37 283.238 160.095 283.249 160.716C283.259 161.336 282.891 161.63 282.429 161.357Z" fill="#D4ECFF"/>
<path d="M283.07 171.123L280.568 169.683C280.106 169.409 279.717 168.684 279.706 168.064C279.696 167.443 280.064 167.149 280.526 167.422L283.028 168.863C283.491 169.136 283.88 169.861 283.89 170.482C283.901 171.112 283.533 171.396 283.07 171.123Z" fill="#D4ECFF"/>
<path d="M292.795 176.737L286.203 172.931C285.741 172.658 285.352 171.932 285.341 171.312C285.331 170.692 285.698 170.398 286.161 170.671L292.752 174.476C293.215 174.75 293.604 175.475 293.614 176.095C293.625 176.716 293.257 177.01 292.795 176.737Z" fill="#D4ECFF"/>
<path d="M285.383 177.168L280.642 174.434C280.179 174.161 279.79 173.436 279.78 172.816C279.769 172.195 280.137 171.901 280.6 172.174L285.341 174.908C285.803 175.181 286.192 175.906 286.203 176.526C286.213 177.147 285.845 177.431 285.383 177.168Z" fill="#D4ECFF"/>
<path d="M311.801 187.733L308.763 185.977C308.3 185.704 307.911 184.979 307.901 184.358C307.89 183.738 308.258 183.444 308.721 183.717L311.759 185.473C312.221 185.746 312.61 186.471 312.621 187.092C312.631 187.712 312.263 188.006 311.801 187.733Z" fill="#D4ECFF"/>
<path d="M295.055 159.254L286.686 154.418C286.224 154.145 285.835 153.42 285.824 152.8C285.814 152.179 286.182 151.885 286.644 152.158L295.012 156.994C295.475 157.267 295.864 157.993 295.875 158.613C295.896 159.233 295.528 159.517 295.055 159.254Z" fill="#D4ECFF"/>
<path d="M294.781 154.387L280.189 145.966C279.727 145.693 279.338 144.968 279.327 144.347C279.317 143.727 279.685 143.433 280.147 143.706L294.739 152.127C295.201 152.4 295.59 153.125 295.601 153.746C295.611 154.376 295.243 154.66 294.781 154.387Z" fill="#D4ECFF"/>
<path d="M288.716 160.284L280.348 155.449C279.885 155.175 279.496 154.45 279.486 153.83C279.475 153.209 279.843 152.915 280.306 153.188L288.674 158.024C289.136 158.298 289.525 159.023 289.536 159.643C289.546 160.263 289.178 160.558 288.716 160.284Z" fill="#D4ECFF"/>
<path d="M301.404 162.923L298.366 161.168C297.904 160.894 297.515 160.169 297.504 159.549C297.494 158.928 297.862 158.634 298.324 158.907L301.362 160.663C301.825 160.936 302.214 161.662 302.224 162.282C302.245 162.902 301.877 163.186 301.404 162.923Z" fill="#D4ECFF"/>
<path d="M327.266 159.054L309.247 148.657C308.784 148.384 308.395 147.659 308.385 147.038C308.374 146.418 308.742 146.124 309.205 146.397L327.224 156.794C327.686 157.067 328.075 157.793 328.086 158.413C328.096 159.033 327.728 159.317 327.266 159.054Z" fill="#D4ECFF"/>
<path d="M290.555 170.755L280.494 164.942C280.032 164.668 279.643 163.943 279.632 163.323C279.622 162.702 279.989 162.408 280.452 162.681L290.513 168.495C290.975 168.768 291.364 169.494 291.375 170.114C291.396 170.734 291.028 171.018 290.555 170.755Z" fill="#D4ECFF"/>
<path d="M283.165 133.593L275.764 129.325C275.301 129.052 274.912 128.326 274.902 127.706C274.891 127.086 275.259 126.791 275.722 127.065L283.122 131.333C283.585 131.606 283.974 132.331 283.984 132.952C284.006 133.572 283.638 133.856 283.165 133.593Z" fill="#D4ECFF"/>
<path d="M285.11 181.709L276.542 176.758C276.079 176.484 275.69 175.759 275.68 175.139C275.669 174.519 276.037 174.224 276.5 174.498L285.068 179.449C285.53 179.722 285.919 180.448 285.93 181.068C285.94 181.688 285.572 181.972 285.11 181.709Z" fill="#D4ECFF"/>
<path d="M65.9848 189.153L110.127 163.449C118.874 158.403 127.116 157.604 133.35 161.2C139.573 164.795 143.011 172.343 143.011 182.435V185.673C142.695 185.883 142.369 186.094 142.033 186.293V182.435C142.033 172.7 138.774 165.457 132.856 162.041C126.937 158.624 119.042 159.423 110.611 164.29L66.4684 189.994C66.2371 190.13 65.9427 190.046 65.8061 189.815C65.6694 189.584 65.7535 189.289 65.9848 189.153Z" fill="#D4ECFF"/>
<path d="M203.648 158.54V59.059C203.648 39.1481 217.682 14.8429 234.923 4.88744C243.364 0.00958282 251.333 -0.757839 257.357 2.71133C263.37 6.18049 266.692 13.4657 266.692 23.2215V30.1598C266.366 30.4857 266.04 30.8116 265.714 31.1375V23.232C265.714 13.8442 262.571 6.8533 256.873 3.56285C251.165 0.272398 243.553 1.03982 235.417 5.73896C218.439 15.5367 204.625 39.4635 204.625 59.0695V158.55C204.625 175.055 194.912 194.588 181.739 206.341C181.739 205.91 181.739 205.468 181.739 205.037C194.386 193.4 203.648 174.53 203.648 158.54Z" fill="#D4ECFF"/>
<path d="M266.681 33.2085C268.279 31.6947 275.732 25.1138 286.613 23.4528C298.934 21.571 304.022 35.9733 304.022 35.9733C304.022 35.9733 305.452 43.4583 305.399 47.8841C305.346 52.3099 305.031 68.3942 305.031 68.3942L265.987 45.8972V45.8867C265.83 45.8026 265.714 45.6449 265.714 45.4557V34.0495C266.029 33.7236 266.355 33.5344 266.681 33.2085Z" fill="#173D7A"/>
<path d="M294.361 24.0517L257.346 2.71112L257.493 3.24726C251.785 -0.432154 243.164 -0.831634 231.632 7.62051C208.725 24.4197 205.981 47.7998 204.804 52.1835C203.637 56.5673 204.12 84.3311 204.12 84.3311C204.12 84.3311 204.047 151.286 203.963 159.076C203.889 166.866 201.618 175.602 197.245 185.032C192.872 194.461 181.634 205.91 181.634 205.91V219.534C183.431 234.273 189.686 237.71 199.001 238.541C206.517 239.214 214.528 233.789 220.93 227.87C220.699 228.112 220.541 228.27 220.541 228.27V241.894C222.339 256.633 228.594 260.071 237.908 260.901C247.222 261.742 257.293 253.206 264.126 245.984C270.949 238.762 276.71 227.734 279.906 217.789C283.102 207.844 282.04 194.987 282.04 194.987C282.04 194.987 282.113 121.798 282.198 107.364C282.271 92.9305 282.734 95.4535 287.464 80.9461C292.195 66.4386 304.747 56.2834 304.747 56.2834L334.855 47.3162L294.361 24.0517Z" fill="#D4ECFF"/>
<path d="M229.929 259.703C229.425 259.009 222.823 254.594 221.151 246.804C220.216 242.473 220.31 235.881 220.31 235.881C220.31 235.881 220.342 232.223 220.426 228.89C220.499 228.827 220.573 228.764 220.647 228.701C220.647 228.27 220.647 227.828 220.647 227.397C220.584 227.45 220.52 227.503 220.468 227.555C220.489 226.809 220.52 226.094 220.552 225.495C220.741 222.036 218.187 214.656 218.187 214.656C218.187 214.656 214.56 204.764 203.753 204.385C194.165 204.049 184.063 210.945 181.918 212.501V208.033C181.771 208.128 181.624 208.222 181.477 208.317C181.487 207.718 181.498 207.108 181.519 206.509C181.592 206.446 181.666 206.383 181.739 206.32C181.739 205.889 181.739 205.447 181.739 205.016C181.676 205.069 181.613 205.121 181.561 205.174C181.582 204.427 181.613 203.713 181.645 203.113C181.834 199.655 179.279 192.275 179.279 192.275C179.279 192.275 175.653 182.382 164.846 182.004C155.258 181.668 145.155 188.564 143.011 190.12V185.652C142.695 185.862 142.37 186.072 142.033 186.272V194.093C142.033 203.565 145.187 210.682 150.916 214.215L150.937 214.246L151.137 214.362C151.19 214.393 151.242 214.435 151.295 214.467C151.326 214.488 151.368 214.498 151.4 214.519L191.012 237.321C191.001 237.311 190.98 237.279 190.959 237.269L229.929 259.703Z" fill="#173D7A"/>
<path d="M172.257 183.581C172.257 183.581 171.963 183.423 171.437 183.213C171.279 183.139 171.122 183.045 170.954 182.971L133.339 161.2C133.339 161.2 126.433 157.573 118.075 160.632C109.717 163.691 65.9219 189.962 65.9219 189.962L105.05 212.501H105.06C105.092 212.522 105.134 212.522 105.166 212.533L143.968 234.883C143.968 234.883 165.918 221.279 181.098 212.512L182.076 211.955C188.289 208.38 193.219 205.721 194.765 205.311C204.131 202.83 210.639 205.857 212.342 206.782L172.257 183.581Z" fill="#D4ECFF"/>
<path d="M212.331 206.772L212.783 207.034C212.783 207.034 212.615 206.929 212.331 206.772Z" fill="#D4ECFF"/>
<path d="M305.588 55.5897C307.186 54.0759 314.64 47.495 325.52 45.834C337.841 43.9522 342.929 58.3545 342.929 58.3545C342.929 58.3545 344.359 65.8395 344.306 70.2653C344.254 74.6911 343.938 90.7754 343.938 90.7754L304.894 68.2784V68.2679C304.737 68.1838 304.621 68.0261 304.621 67.8369V56.4307C304.936 56.1048 305.262 55.9156 305.588 55.5897Z" fill="#173D7A"/>
<path d="M237.541 261.479C241.851 261.479 246.613 260.039 251.544 257.19C268.669 247.308 282.587 223.182 282.587 203.418V103.937C282.587 84.3311 296.401 60.4149 313.379 50.6066C321.516 45.918 329.127 45.14 334.835 48.4305C340.543 51.7209 343.676 58.7118 343.676 68.0996V90.3338C343.676 90.6071 343.897 90.8174 344.16 90.8174C344.433 90.8174 344.643 90.5966 344.643 90.3338V68.1101C344.643 58.3544 341.332 51.0691 335.308 47.6C329.284 44.1203 321.326 44.8982 312.874 49.7761C295.644 59.721 281.62 84.0262 281.62 103.937V203.418C281.62 222.877 267.912 246.625 251.06 256.349C242.986 261.006 235.428 261.774 229.761 258.504C224.095 255.235 220.983 248.307 220.983 238.982V227.313C220.983 217.221 217.556 209.673 211.322 206.078C205.088 202.482 196.846 203.281 188.1 208.327L143.957 234.031C143.726 234.168 143.642 234.462 143.779 234.693C143.915 234.924 144.21 234.998 144.441 234.872L188.584 209.168C197.015 204.301 204.92 203.502 210.828 206.919C216.747 210.335 220.006 217.579 220.006 227.313V238.982C220.006 248.664 223.296 255.897 229.267 259.345C231.738 260.775 234.524 261.479 237.541 261.479Z" fill="#396CAA"/>
<path d="M240.589 128.316L234.061 124.553C233.451 124.206 232.957 123.26 232.936 122.45C232.925 121.641 233.398 121.262 234.008 121.609L240.536 125.373C241.146 125.72 241.64 126.666 241.661 127.475C241.672 128.295 241.188 128.674 240.589 128.316Z" fill="#5793CE"/>
<path d="M254.444 136.316L244.825 130.765C244.215 130.419 243.721 129.472 243.7 128.663C243.69 127.853 244.163 127.475 244.773 127.822L254.392 133.373C255.001 133.719 255.496 134.666 255.517 135.475C255.527 136.295 255.043 136.674 254.444 136.316Z" fill="#5793CE"/>
<path d="M239.842 103.454L227.385 96.2632C226.775 95.9163 226.281 94.9702 226.26 94.1607C226.249 93.3512 226.722 92.9728 227.332 93.3197L239.79 100.51C240.399 100.857 240.894 101.803 240.915 102.613C240.936 103.422 240.452 103.801 239.842 103.454Z" fill="#5793CE"/>
<path d="M231.664 110.949L227.585 108.595C226.975 108.248 226.481 107.301 226.46 106.492C226.45 105.683 226.923 105.304 227.532 105.651L231.611 108.006C232.221 108.353 232.715 109.299 232.736 110.108C232.757 110.928 232.274 111.296 231.664 110.949Z" fill="#5793CE"/>
<path d="M230.413 122.44L227.795 120.926C227.185 120.579 226.691 119.633 226.67 118.823C226.66 118.014 227.133 117.635 227.742 117.982L230.36 119.496C230.97 119.843 231.464 120.789 231.485 121.599C231.495 122.419 231.012 122.797 230.413 122.44Z" fill="#5793CE"/>
<path d="M246.833 119.706L235.942 113.42C235.333 113.073 234.839 112.127 234.818 111.317C234.807 110.508 235.28 110.129 235.89 110.476L246.781 116.763C247.391 117.11 247.885 118.056 247.906 118.865C247.916 119.675 247.433 120.053 246.833 119.706Z" fill="#5793CE"/>
<path d="M246.466 113.388L227.49 102.434C226.881 102.087 226.386 101.141 226.365 100.331C226.355 99.522 226.828 99.1436 227.438 99.4905L246.413 110.445C247.023 110.792 247.517 111.738 247.538 112.547C247.548 113.357 247.075 113.735 246.466 113.388Z" fill="#5793CE"/>
<path d="M238.581 121.052L227.689 114.765C227.08 114.418 226.586 113.472 226.565 112.663C226.554 111.853 227.027 111.475 227.637 111.822L238.528 118.108C239.138 118.455 239.632 119.401 239.653 120.211C239.663 121.02 239.18 121.399 238.581 121.052Z" fill="#5793CE"/>
<path d="M255.086 124.468L251.133 122.187C250.523 121.84 250.029 120.894 250.008 120.085C249.997 119.275 250.471 118.897 251.08 119.244L255.033 121.525C255.643 121.872 256.137 122.818 256.158 123.627C256.179 124.447 255.695 124.826 255.086 124.468Z" fill="#5793CE"/>
<path d="M243.815 93.5194L237.287 89.7559C236.677 89.409 236.183 88.4629 236.162 87.6534C236.152 86.8439 236.625 86.4655 237.235 86.8124L243.763 90.5759C244.373 90.9228 244.867 91.869 244.888 92.6784C244.909 93.4984 244.425 93.8664 243.815 93.5194Z" fill="#5793CE"/>
<path d="M259.364 102.497L249.745 96.9467C249.135 96.5998 248.641 95.6537 248.62 94.8442C248.61 94.0347 249.083 93.6563 249.693 94.0032L259.312 99.5538C259.921 99.9008 260.415 100.847 260.436 101.656C260.447 102.466 259.963 102.844 259.364 102.497Z" fill="#5793CE"/>
<path d="M240.589 128.316L234.061 124.553C233.451 124.206 232.957 123.259 232.936 122.45C232.925 121.641 233.398 121.262 234.008 121.609L240.536 125.373C241.146 125.719 241.64 126.666 241.661 127.475C241.672 128.295 241.188 128.674 240.589 128.316Z" fill="#5793CE"/>
<path d="M254.444 136.316L244.825 130.766C244.215 130.419 243.721 129.473 243.7 128.663C243.69 127.854 244.163 127.475 244.773 127.822L254.392 133.373C255.001 133.72 255.496 134.666 255.517 135.475C255.527 136.295 255.043 136.674 254.444 136.316Z" fill="#5793CE"/>
<path d="M225.924 89.304L221.845 86.9492C221.235 86.6022 220.741 85.6561 220.72 84.8466C220.709 84.0372 221.182 83.6587 221.792 84.0056L225.871 86.3604C226.481 86.7074 226.975 87.6535 226.996 88.463C227.006 89.2724 226.533 89.6509 225.924 89.304Z" fill="#5793CE"/>
<path d="M239.842 103.454L227.385 96.2632C226.775 95.9163 226.281 94.9702 226.26 94.1607C226.249 93.3512 226.722 92.9728 227.332 93.3197L239.79 100.51C240.399 100.857 240.894 101.803 240.915 102.613C240.936 103.422 240.452 103.801 239.842 103.454Z" fill="#5793CE"/>
<path d="M231.663 110.949L227.584 108.594C226.974 108.248 226.48 107.301 226.459 106.492C226.449 105.682 226.922 105.304 227.531 105.651L231.61 108.006C232.22 108.353 232.714 109.299 232.735 110.108C232.756 110.928 232.273 111.296 231.663 110.949Z" fill="#5793CE"/>
<path d="M259.249 151.318L248.357 145.031C247.748 144.684 247.254 143.738 247.233 142.929C247.222 142.119 247.695 141.741 248.305 142.088L259.196 148.374C259.806 148.721 260.3 149.667 260.321 150.477C260.342 151.297 259.858 151.665 259.249 151.318Z" fill="#5793CE"/>
<path d="M230.413 122.44L227.795 120.926C227.185 120.579 226.691 119.633 226.67 118.823C226.66 118.014 227.133 117.635 227.742 117.982L230.36 119.496C230.97 119.843 231.464 120.789 231.485 121.599C231.495 122.419 231.012 122.797 230.413 122.44Z" fill="#5793CE"/>
<path d="M231.243 135.149L227.994 133.278C227.384 132.931 226.89 131.985 226.869 131.175C226.859 130.366 227.332 129.988 227.942 130.334L231.19 132.206C231.8 132.553 232.294 133.499 232.315 134.308C232.325 135.118 231.842 135.496 231.243 135.149Z" fill="#5793CE"/>
<path d="M243.879 142.445L235.312 137.494C234.702 137.147 234.208 136.201 234.187 135.391C234.176 134.582 234.649 134.203 235.259 134.55L243.827 139.502C244.437 139.849 244.931 140.795 244.952 141.604C244.973 142.424 244.489 142.792 243.879 142.445Z" fill="#5793CE"/>
<path d="M234.249 142.992L228.089 139.439C227.479 139.092 226.985 138.146 226.964 137.336C226.954 136.527 227.427 136.148 228.036 136.495L234.197 140.048C234.806 140.395 235.301 141.341 235.322 142.151C235.332 142.971 234.859 143.349 234.249 142.992Z" fill="#5793CE"/>
<path d="M246.833 119.706L235.942 113.42C235.333 113.073 234.839 112.127 234.818 111.317C234.807 110.508 235.28 110.129 235.89 110.476L246.781 116.763C247.391 117.11 247.885 118.056 247.906 118.865C247.916 119.675 247.433 120.053 246.833 119.706Z" fill="#5793CE"/>
<path d="M246.466 113.388L227.49 102.434C226.881 102.087 226.386 101.141 226.365 100.332C226.355 99.5223 226.828 99.1438 227.438 99.4907L246.413 110.445C247.023 110.792 247.517 111.738 247.538 112.547C247.548 113.357 247.075 113.735 246.466 113.388Z" fill="#5793CE"/>
<path d="M238.581 121.052L227.689 114.766C227.08 114.419 226.586 113.473 226.565 112.663C226.554 111.854 227.027 111.475 227.637 111.822L238.528 118.109C239.138 118.455 239.632 119.402 239.653 120.211C239.663 121.021 239.18 121.399 238.581 121.052Z" fill="#5793CE"/>
<path d="M255.086 124.468L251.133 122.187C250.523 121.84 250.029 120.894 250.008 120.085C249.997 119.275 250.471 118.897 251.08 119.244L255.033 121.525C255.643 121.872 256.137 122.818 256.158 123.627C256.179 124.447 255.695 124.826 255.086 124.468Z" fill="#5793CE"/>
<path d="M240.978 134.655L227.89 127.097C227.28 126.75 226.786 125.804 226.765 124.994C226.754 124.185 227.227 123.806 227.837 124.153L240.925 131.712C241.535 132.059 242.029 133.005 242.05 133.814C242.061 134.634 241.588 135.013 240.978 134.655Z" fill="#5793CE"/>
<path d="M231.369 86.3393L221.75 80.7886C221.14 80.4417 220.646 79.4956 220.625 78.6861C220.615 77.8766 221.088 77.4982 221.697 77.8451L231.317 83.3958C231.926 83.7427 232.42 84.6888 232.441 85.4983C232.452 86.3078 231.979 86.6862 231.369 86.3393Z" fill="#5793CE"/>
<path d="M233.892 148.9L222.749 142.466C222.139 142.119 221.645 141.173 221.624 140.364C221.614 139.554 222.087 139.176 222.696 139.523L233.84 145.956C234.45 146.303 234.944 147.249 234.965 148.059C234.975 148.879 234.502 149.247 233.892 148.9Z" fill="#5793CE"/>
<path d="M239.054 186.861L232.525 183.097C231.916 182.751 231.422 181.804 231.401 180.995C231.39 180.185 231.863 179.807 232.473 180.154L239.001 183.917C239.611 184.264 240.105 185.21 240.126 186.02C240.137 186.829 239.653 187.208 239.054 186.861Z" fill="#5793CE"/>
<path d="M252.909 194.861L243.29 189.31C242.68 188.963 242.186 188.017 242.165 187.208C242.155 186.398 242.628 186.02 243.238 186.367L252.857 191.917C253.466 192.264 253.96 193.211 253.981 194.02C253.992 194.829 253.508 195.208 252.909 194.861Z" fill="#5793CE"/>
<path d="M238.308 161.988L225.851 154.797C225.241 154.451 224.747 153.504 224.726 152.695C224.715 151.885 225.188 151.507 225.798 151.854L238.255 159.045C238.865 159.391 239.359 160.338 239.38 161.147C239.401 161.967 238.918 162.335 238.308 161.988Z" fill="#5793CE"/>
<path d="M230.129 169.484L226.05 167.129C225.44 166.782 224.946 165.836 224.925 165.026C224.914 164.217 225.388 163.838 225.997 164.185L230.076 166.54C230.686 166.887 231.18 167.833 231.201 168.643C231.222 169.463 230.738 169.841 230.129 169.484Z" fill="#5793CE"/>
<path d="M228.878 180.984L226.261 179.471C225.651 179.124 225.157 178.177 225.136 177.368C225.125 176.559 225.598 176.18 226.208 176.527L228.826 178.041C229.436 178.388 229.93 179.334 229.951 180.143C229.961 180.953 229.478 181.331 228.878 180.984Z" fill="#5793CE"/>
<path d="M245.298 178.241L234.407 171.954C233.798 171.607 233.303 170.661 233.282 169.852C233.272 169.042 233.745 168.664 234.355 169.011L245.246 175.297C245.855 175.644 246.35 176.59 246.371 177.4C246.381 178.22 245.898 178.598 245.298 178.241Z" fill="#5793CE"/>
<path d="M244.93 171.923L225.955 160.969C225.345 160.622 224.851 159.676 224.83 158.866C224.82 158.057 225.293 157.678 225.903 158.025L244.878 168.979C245.488 169.326 245.982 170.272 246.003 171.082C246.024 171.902 245.54 172.27 244.93 171.923Z" fill="#5793CE"/>
<path d="M237.046 179.586L226.155 173.3C225.546 172.953 225.051 172.007 225.03 171.197C225.02 170.388 225.493 170.009 226.103 170.356L236.994 176.643C237.604 176.99 238.098 177.936 238.119 178.745C238.129 179.565 237.656 179.944 237.046 179.586Z" fill="#5793CE"/>
<path d="M253.55 183.013L249.598 180.732C248.988 180.385 248.494 179.439 248.473 178.63C248.462 177.82 248.935 177.442 249.545 177.789L253.498 180.07C254.108 180.417 254.602 181.363 254.623 182.172C254.644 182.982 254.16 183.36 253.55 183.013Z" fill="#5793CE"/>
<path d="M372.852 122.361L368.137 112.77L377.727 108.055L382.443 117.646L372.852 122.361ZM371.002 113.743L373.836 119.496L379.588 116.662L376.754 110.91L371.002 113.743Z" fill="#5788FF"/>
<path d="M33.5706 270.115L47.0859 270.327C48.0826 269.028 49.502 267.805 51.3594 266.733C58.7891 262.444 70.4772 262.112 78.5863 265.736L86.62 258.185L98.9876 258.382C98.3836 257.989 97.7494 257.581 97.0849 257.204C79.9001 247.283 52.0239 247.283 34.8391 257.204C31.683 259.031 29.1007 261.07 27.1074 263.229L33.5706 270.115Z" fill="#0A5DA4"/>
<path d="M98.9731 238.751V258.367L86.6055 258.186V238.554L98.9731 238.751Z" fill="#0076DA"/>
<path d="M78.5713 246.105V265.736L86.605 258.186V238.554L78.5713 246.105Z" fill="#0A5DA4"/>
<path d="M47.0869 250.695V270.327L64.8758 255.83L78.5874 265.736V246.105L65.963 239.989C65.963 239.989 48.5819 245.304 47.6909 245.531C46.7698 245.757 47.0869 250.695 47.0869 250.695Z" fill="#0A5DA4"/>
<path d="M33.5713 250.484V270.115L47.0866 270.327V250.696L33.5713 250.484Z" fill="#0A5DA4"/>
<path d="M27.0928 243.598V263.214L33.571 270.115V250.484L27.0928 243.598Z" fill="#0076DA"/>
<path d="M33.5716 250.484L47.0869 250.695C48.0835 249.397 49.503 248.174 51.3604 247.101C58.7901 242.813 70.4781 242.481 78.5873 246.105L86.621 238.554L98.9886 238.751C98.3846 238.358 97.7504 237.95 97.0859 237.573C79.9011 227.652 52.0249 227.652 34.8401 237.573C31.684 239.4 29.1017 241.439 27.1084 243.598L33.5716 250.484Z" fill="url(#paint0_linear)"/>
<path d="M82.6484 248.521V266.566L94.3516 263.758C94.3516 263.758 93.6721 253.202 93.4154 252.915C93.1587 252.628 82.6484 248.521 82.6484 248.521Z" fill="#5793CE"/>
<path d="M73.7842 266.566V286.198L75.0526 287.542L83.2977 282.785C83.2977 282.785 82.0142 267.805 81.8632 267.503C81.7272 267.201 73.7842 266.566 73.7842 266.566Z" fill="#214D94"/>
<path d="M89.7156 261.493L82.6484 268.152C88.5377 272.818 87.8431 279.387 80.5494 283.6C78.5561 284.748 76.2456 285.624 73.7842 286.198L81.093 293.99L74.6147 300.075C82.8447 299.124 90.6821 296.814 97.0697 293.129C111.838 284.597 113.907 271.52 103.276 261.704L89.7156 261.493Z" fill="#437FEC"/>
<path d="M74.6299 280.444V300.075L90.667 293.884L109.951 275.476L109.89 254.637L89.4741 270.81L74.6299 280.444Z" fill="#437FEC"/>
<path d="M89.7166 241.861L82.6494 248.521C88.5387 253.187 87.8441 259.756 80.5503 263.969C78.557 265.117 76.2466 265.993 73.7852 266.566L81.094 274.358L74.6157 280.444C82.8457 279.493 90.683 277.182 97.0707 273.498C111.839 264.966 113.908 251.888 103.277 242.073L89.7166 241.861Z" fill="#D4ECFF"/>
<path d="M74.5698 293.884L68.1217 287.013C62.1418 287.376 55.9353 286.243 51.3447 283.585C46.603 280.852 44.655 277.122 45.4855 273.558L30.143 273.317L24.2386 267.035C19.0741 275.899 22.5926 286.062 34.8243 293.129C43.8093 298.309 55.7088 300.785 67.4724 300.544L74.5698 293.884Z" fill="#437FEC"/>
<path d="M67.4731 280.927V300.559L21.959 275.325V255.679L28.6034 258.367L67.4731 280.927Z" fill="#437FEC"/>
<path d="M74.5701 274.253V293.884L67.4727 300.559V280.927L74.5701 274.253Z" fill="#214D94"/>
<path d="M74.5698 274.253L68.1217 267.382C62.1418 267.744 55.9353 266.612 51.3447 263.954C46.603 261.221 44.655 257.491 45.4855 253.927L30.143 253.686L24.2386 247.404C19.0741 256.268 22.5926 266.431 34.8243 273.498C43.8093 278.677 55.7088 281.154 67.4724 280.912L74.5698 274.253Z" fill="url(#paint1_linear)"/>
<path d="M90.6038 80.3974C86.9268 80.3974 83.9277 77.3983 83.9277 73.7213C83.9277 70.0444 86.9268 67.0453 90.6038 67.0453C94.2808 67.0453 97.2799 70.0444 97.2799 73.7213C97.2799 77.3983 94.2808 80.3974 90.6038 80.3974ZM90.6038 69.0995C88.0566 69.0995 85.9819 71.1742 85.9819 73.7213C85.9819 76.2685 88.0566 78.3432 90.6038 78.3432C93.151 78.3432 95.2257 76.2685 95.2257 73.7213C95.2257 71.1742 93.151 69.0995 90.6038 69.0995Z" fill="#5793CE"/>
<path d="M295.537 71.5478L267.426 55.3163C266.869 54.9905 266.365 54.9799 265.976 55.2007V55.1797L263.253 56.7566C263.253 56.7566 264.462 57.1981 265.166 57.4609V77.929C265.166 79.59 266.175 81.5243 267.426 82.2497L294.297 97.7663V100.163L297.051 98.5758L297.041 98.5653C297.503 98.2814 297.808 97.6612 297.808 96.7676V75.8685C297.797 74.2075 296.788 72.2732 295.537 71.5478Z" fill="#0A5DA4"/>
<path d="M292.763 100.079L264.652 83.8473C263.401 83.1219 262.392 81.1876 262.392 79.5266V58.6275C262.392 56.9665 263.401 56.1991 264.652 56.914L292.763 73.1455C294.014 73.8708 295.023 75.8051 295.023 77.4661V98.3652C295.023 100.037 294.014 100.804 292.763 100.079Z" fill="url(#paint2_linear)"/>
<path d="M274.103 76.6463C274.103 77.8552 273.251 78.3493 272.211 77.7396C271.159 77.1298 270.318 75.6686 270.318 74.4596C270.318 73.2507 271.17 72.7566 272.211 73.3663C273.262 73.9655 274.103 75.4373 274.103 76.6463Z" fill="white"/>
<path d="M279.854 79.9682C279.854 81.1771 279.002 81.6712 277.962 81.0615C276.91 80.4517 276.069 78.9905 276.069 77.7815C276.069 76.5726 276.921 76.0785 277.962 76.6882C279.002 77.2874 279.854 78.7592 279.854 79.9682Z" fill="white"/>
<path d="M285.593 83.2797C285.593 84.4886 284.742 84.9827 283.701 84.373C282.65 83.7633 281.809 82.302 281.809 81.0931C281.809 79.8841 282.66 79.39 283.701 79.9997C284.752 80.599 285.593 82.0707 285.593 83.2797Z" fill="white"/>
<path d="M158.863 39.621L131.288 23.7049C130.742 23.3896 130.248 23.379 129.859 23.5893V23.5683L127.188 25.1136C127.188 25.1136 128.376 25.5446 129.07 25.7969V45.8761C129.07 47.5055 130.058 49.4083 131.288 50.1126L157.644 65.3349V67.6897L160.345 66.1339L160.335 66.1234C160.787 65.85 161.081 65.2298 161.081 64.3572V43.8576C161.081 42.2282 160.082 40.3254 158.863 39.621Z" fill="#5793CE"/>
<path d="M156.14 67.6163L128.566 51.6897C127.336 50.9853 126.348 49.0826 126.348 47.4531V26.9535C126.348 25.324 127.336 24.5671 128.566 25.2715L156.14 41.1876C157.37 41.8919 158.359 43.7947 158.359 45.4242V65.9238C158.359 67.5743 157.36 68.3207 156.14 67.6163Z" fill="#D4ECFF"/>
<path d="M137.838 44.625C137.838 45.8129 137.007 46.2965 135.977 45.6973C134.947 45.1086 134.116 43.6578 134.116 42.4699C134.116 41.282 134.947 40.7984 135.977 41.3976C137.007 41.9968 137.838 43.4371 137.838 44.625Z" fill="white"/>
<path d="M143.472 47.8842C143.472 49.0721 142.642 49.5557 141.612 48.9564C140.581 48.3677 139.751 46.917 139.751 45.7291C139.751 44.5411 140.581 44.0576 141.612 44.6568C142.642 45.2455 143.472 46.6962 143.472 47.8842Z" fill="white"/>
<path d="M149.107 51.1322C149.107 52.3201 148.277 52.8037 147.246 52.2045C146.216 51.6158 145.386 50.165 145.386 48.9771C145.386 47.7892 146.216 47.3056 147.246 47.9048C148.277 48.504 149.107 49.9443 149.107 51.1322Z" fill="white"/>
<path d="M354.156 301.576L373.356 290.481L392.572 301.576L373.356 312.672L354.156 301.576Z" fill="#D4ECFF"/>
<path d="M394.929 277.714L414.145 266.636L433.345 277.714L414.145 288.81L394.929 277.714Z" fill="#D4ECFF"/>
<path d="M435.584 254.437L454.8 243.342L474 254.437L454.8 265.516L435.584 254.437Z" fill="#D4ECFF"/>
<path d="M414.145 277.715V218.561L394.929 207.483V266.636L414.145 277.715Z" fill="#C13D1A"/>
<path d="M414.145 218.561L433.344 207.483V266.636L414.145 277.715V218.561Z" fill="url(#paint3_linear)"/>
<path d="M414.145 277.715V218.561L394.929 207.483V266.636L414.145 277.715Z" fill="url(#paint4_linear)"/>
<path d="M373.356 301.576V268.307L354.156 257.211V290.481L373.356 301.576Z" fill="url(#paint5_linear)"/>
<path d="M373.356 268.307L392.573 257.211V290.481L373.356 301.576V268.307Z" fill="url(#paint6_linear)"/>
<path d="M354.156 257.211L373.356 246.116L392.572 257.211L373.356 268.307L354.156 257.211Z" fill="#0084F4"/>
<path d="M454.8 254.438V173.094L435.584 161.998V243.342L454.8 254.438Z" fill="url(#paint7_linear)"/>
<path d="M454.8 173.094L474 161.998V243.342L454.8 254.438V173.094Z" fill="url(#paint8_linear)"/>
<path d="M435.584 161.998L454.8 150.902L474 161.998L454.8 173.093L435.584 161.998Z" fill="#0084F4"/>
<path d="M394.929 207.483L414.145 196.387L433.345 207.483L414.145 218.561L394.929 207.483Z" fill="#0084F4"/>
<defs>
<linearGradient id="paint0_linear" x1="27.1084" y1="230.132" x2="94.1449" y2="261.16" gradientUnits="userSpaceOnUse">
<stop stop-color="#538DFF"/>
<stop offset="1" stop-color="#865BFF"/>
</linearGradient>
<linearGradient id="paint1_linear" x1="21.9355" y1="247.404" x2="79.0701" y2="259.281" gradientUnits="userSpaceOnUse">
<stop stop-color="#538DFF"/>
<stop offset="1" stop-color="#865BFF"/>
</linearGradient>
<linearGradient id="paint2_linear" x1="262.392" y1="56.6465" x2="298.986" y2="60.2643" gradientUnits="userSpaceOnUse">
<stop stop-color="#538DFF"/>
<stop offset="1" stop-color="#865BFF"/>
</linearGradient>
<linearGradient id="paint3_linear" x1="414.145" y1="207.483" x2="435.858" y2="208.269" gradientUnits="userSpaceOnUse">
<stop stop-color="#538DFF"/>
<stop offset="1" stop-color="#865BFF"/>
</linearGradient>
<linearGradient id="paint4_linear" x1="394.929" y1="207.483" x2="416.661" y2="208.27" gradientUnits="userSpaceOnUse">
<stop stop-color="#538DFF"/>
<stop offset="1" stop-color="#865BFF"/>
</linearGradient>
<linearGradient id="paint5_linear" x1="354.156" y1="257.211" x2="375.827" y2="258.453" gradientUnits="userSpaceOnUse">
<stop stop-color="#538DFF"/>
<stop offset="1" stop-color="#865BFF"/>
</linearGradient>
<linearGradient id="paint6_linear" x1="373.356" y1="257.211" x2="395.046" y2="258.455" gradientUnits="userSpaceOnUse">
<stop stop-color="#538DFF"/>
<stop offset="1" stop-color="#865BFF"/>
</linearGradient>
<linearGradient id="paint7_linear" x1="435.584" y1="161.998" x2="457.329" y2="162.597" gradientUnits="userSpaceOnUse">
<stop stop-color="#538DFF"/>
<stop offset="1" stop-color="#865BFF"/>
</linearGradient>
<linearGradient id="paint8_linear" x1="454.8" y1="161.998" x2="476.525" y2="162.596" gradientUnits="userSpaceOnUse">
<stop stop-color="#538DFF"/>
<stop offset="1" stop-color="#865BFF"/>
</linearGradient>
</defs>
</svg>
