<svg width="58" height="44" viewBox="0 0 58 44" fill="none" xmlns="http://www.w3.org/2000/svg">
<path d="M54.375 0H36.25V43.5H54.375C56.3687 43.5 58 41.8688 58 39.875V3.625C58 1.63125 56.3687 0 54.375 0Z" fill="#9FBBFF"/>
<path d="M3.625 0C1.63125 0 0 1.63125 0 3.625V39.875C0 41.8688 1.63125 43.5 3.625 43.5H36.25V0H3.625Z" fill="#CAD9FF"/>
<path d="M50.75 3.625H47.125V39.875H50.75C52.7438 39.875 54.375 38.2438 54.375 36.25V7.25C54.375 5.25625 52.7438 3.625 50.75 3.625Z" fill="white"/>
<path d="M47.125 9.38867V19.593C49.2275 18.8499 50.75 16.8562 50.75 14.4818C50.75 12.1437 49.2275 10.1499 47.125 9.38867Z" fill="#CAD9FF"/>
<path d="M39.875 3.625H36.25V39.875H39.875C41.8688 39.875 43.5 38.2438 43.5 36.25V7.25C43.5 5.25625 41.8688 3.625 39.875 3.625Z" fill="#9FFFC5"/>
</svg>
