<svg width="48" height="56" viewBox="0 0 48 56" fill="none" xmlns="http://www.w3.org/2000/svg">
<path d="M12 31.4286H1.71429C0.771429 31.4286 0 32.2 0 33.1429V53.7143C0 54.6572 0.771429 55.4286 1.71429 55.4286H12C12.9429 55.4286 13.7143 54.6572 13.7143 53.7143V33.1429C13.7143 32.2 12.9429 31.4286 12 31.4286Z" fill="#E6EDFF"/>
<path d="M29.1431 0.571411H18.8574C17.9145 0.571411 17.1431 1.34284 17.1431 2.2857V53.7143C17.1431 54.6571 17.9145 55.4286 18.8574 55.4286H29.1431C30.0859 55.4286 30.8574 54.6571 30.8574 53.7143V2.2857C30.8574 1.34284 30.0859 0.571411 29.1431 0.571411Z" fill="#9FBBFF"/>
<path d="M46.2856 17.7142H35.9999C35.0571 17.7142 34.2856 18.4857 34.2856 19.4285V53.7142C34.2856 54.6571 35.0571 55.4285 35.9999 55.4285H46.2856C47.2285 55.4285 47.9999 54.6571 47.9999 53.7142V19.4285C47.9999 18.4857 47.2285 17.7142 46.2856 17.7142Z" fill="#CAD9FF"/>
</svg>
