<svg width="60" height="59" viewBox="0 0 60 59" fill="none" xmlns="http://www.w3.org/2000/svg">
<path d="M48.1315 18.1312H11.869L0.990234 32.6362H59.0103L48.1315 18.1312Z" fill="#CAD9FF"/>
<path d="M46.3181 21.7576H13.6818L4.61621 34.4494V54.3938H55.3837V34.4494L46.3181 21.7576Z" fill="#A0B7EE"/>
<path d="M46.3182 0H13.6819C11.6875 0 10.0557 1.63181 10.0557 3.62625V58.02H49.9444V3.62625C49.9444 1.61368 48.3126 0 46.3182 0Z" fill="#9FBBFF"/>
<path d="M44.5048 3.62622H15.4948C14.4975 3.62622 13.6816 4.44213 13.6816 5.43935V54.3937H46.3179V5.43935C46.3179 4.44213 45.502 3.62622 44.5048 3.62622Z" fill="white"/>
<path d="M37.2527 10.8788H22.7477C21.7505 10.8788 20.9346 11.6947 20.9346 12.6919C20.9346 13.6891 21.7505 14.505 22.7477 14.505H37.2527C38.2499 14.505 39.0658 13.6891 39.0658 12.6919C39.0658 11.6947 38.2499 10.8788 37.2527 10.8788ZM33.6265 18.1313H22.7477C21.7505 18.1313 20.9346 18.9472 20.9346 19.9444C20.9346 20.9416 21.7505 21.7575 22.7477 21.7575H33.6265C34.6237 21.7575 35.4396 20.9416 35.4396 19.9444C35.4396 18.9472 34.6237 18.1313 33.6265 18.1313Z" fill="#9FBBFF"/>
<path d="M40.879 32.6362C39.8818 32.6362 39.0659 33.4521 39.0659 34.4494V38.0756C39.0659 39.0728 38.25 39.8887 37.2528 39.8887H22.7477C21.7505 39.8887 20.9346 39.0728 20.9346 38.0756V34.4494C20.9346 33.4521 20.1187 32.6362 19.1215 32.6362H0.990234V54.3937C0.990234 56.3882 2.62205 58.02 4.61649 58.02H55.384C57.3784 58.02 59.0103 56.3882 59.0103 54.3937V32.6362H40.879Z" fill="#CAD9FF"/>
</svg>
