<svg width="60" height="59" viewBox="0 0 60 59" fill="none" xmlns="http://www.w3.org/2000/svg">
<path d="M48.131 18.1312H11.8685L0.989746 32.6362H59.0098L48.131 18.1312Z" fill="#CAD9FF"/>
<path d="M46.3176 21.7576H13.6814L4.61572 34.4494V54.3938H55.3832V34.4494L46.3176 21.7576Z" fill="#A0B7EE"/>
<path d="M46.3182 0H13.6819C11.6875 0 10.0557 1.63181 10.0557 3.62625V58.02H49.9444V3.62625C49.9444 1.61368 48.3126 0 46.3182 0Z" fill="#9FBBFF"/>
<path d="M44.5048 3.62622H15.4948C14.4975 3.62622 13.6816 4.44213 13.6816 5.43935V54.3937H46.3179V5.43935C46.3179 4.44213 45.502 3.62622 44.5048 3.62622Z" fill="white"/>
<path d="M37.2522 10.8788H22.7472C21.75 10.8788 20.9341 11.6947 20.9341 12.6919C20.9341 13.6891 21.75 14.505 22.7472 14.505H37.2522C38.2494 14.505 39.0653 13.6891 39.0653 12.6919C39.0653 11.6947 38.2494 10.8788 37.2522 10.8788ZM33.626 18.1313H22.7472C21.75 18.1313 20.9341 18.9472 20.9341 19.9444C20.9341 20.9416 21.75 21.7575 22.7472 21.7575H33.626C34.6232 21.7575 35.4391 20.9416 35.4391 19.9444C35.4391 18.9472 34.6232 18.1313 33.626 18.1313Z" fill="#9FBBFF"/>
<path d="M40.8785 32.6362C39.8813 32.6362 39.0654 33.4521 39.0654 34.4494V38.0756C39.0654 39.0728 38.2495 39.8887 37.2523 39.8887H22.7473C21.75 39.8887 20.9341 39.0728 20.9341 38.0756V34.4494C20.9341 33.4521 20.1182 32.6362 19.121 32.6362H0.989746V54.3937C0.989746 56.3882 2.62156 58.02 4.616 58.02H55.3835C57.378 58.02 59.0098 56.3882 59.0098 54.3937V32.6362H40.8785Z" fill="#CAD9FF"/>
</svg>
